<?xml version="1.0" standalone="no"?>
<!DOCTYPE svg PUBLIC "-//W3C//DTD SVG 20010904//EN"
 "http://www.w3.org/TR/2001/REC-SVG-20010904/DTD/svg10.dtd">
<svg version="1.0" xmlns="http://www.w3.org/2000/svg"
 width="2048.000000pt" height="2048.000000pt" viewBox="0 0 2048.000000 2048.000000"
 preserveAspectRatio="xMidYMid meet">
<metadata>
Created by potrace 1.14, written by Peter Selinger 2001-2017
</metadata>
<g transform="translate(0.000000,2048.000000) scale(0.100000,-0.100000)"
fill="#000000" stroke="none">
<path d="M9710 20469 c-917 -42 -1959 -246 -2831 -553 -310 -109 -349 -125
-349 -147 0 -16 7 -19 40 -19 33 0 40 -3 40 -20 0 -17 7 -20 45 -20 38 0 45
-3 45 -20 0 -17 7 -20 39 -20 33 0 40 -4 43 -22 2 -19 10 -24 46 -26 34 -3 42
-7 42 -23 0 -16 7 -19 40 -19 33 0 40 -3 40 -20 0 -17 7 -20 45 -20 38 0 45
-3 45 -19 0 -15 10 -21 39 -26 27 -4 41 -13 44 -26 4 -15 14 -19 46 -19 34 0
41 -3 41 -20 0 -17 7 -20 40 -20 33 0 40 -3 40 -20 0 -17 7 -20 45 -20 38 0
45 -3 45 -19 0 -15 10 -21 39 -26 27 -4 41 -13 44 -26 4 -15 14 -19 46 -19 34
0 41 -3 41 -20 0 -17 7 -20 40 -20 33 0 40 -3 40 -20 0 -17 7 -20 44 -20 39 0
45 -3 48 -22 2 -19 10 -24 46 -26 34 -3 42 -7 42 -23 0 -16 7 -19 40 -19 33 0
40 -3 40 -20 0 -17 7 -20 45 -20 38 0 45 -3 45 -20 0 -17 7 -20 39 -20 33 0
40 -4 43 -22 2 -19 10 -24 46 -26 34 -3 42 -7 42 -23 0 -16 7 -19 40 -19 33 0
40 -3 40 -20 0 -17 7 -20 45 -20 38 0 45 -3 45 -19 0 -15 10 -21 39 -26 27 -4
41 -13 44 -26 4 -15 14 -19 46 -19 34 0 41 -3 41 -20 0 -17 7 -20 40 -20 33 0
40 -3 40 -20 0 -17 7 -20 45 -20 38 0 45 -3 45 -19 0 -15 10 -21 39 -26 27 -4
41 -13 44 -26 4 -15 14 -19 46 -19 34 0 41 -3 41 -20 0 -17 7 -20 40 -20 33 0
40 -3 40 -20 0 -17 7 -20 44 -20 39 0 45 -3 48 -22 2 -19 10 -24 46 -26 34 -3
42 -7 42 -23 0 -16 7 -19 40 -19 33 0 40 -3 40 -20 0 -17 7 -20 45 -20 38 0
45 -3 45 -20 0 -17 7 -20 39 -20 33 0 40 -4 43 -22 2 -19 10 -24 46 -26 34 -3
42 -7 42 -23 0 -16 7 -19 40 -19 33 0 40 -3 40 -20 0 -17 7 -20 45 -20 38 0
45 -3 45 -19 0 -15 10 -21 39 -26 27 -4 41 -13 44 -26 4 -15 14 -19 46 -19 34
0 41 -3 41 -20 0 -17 7 -20 40 -20 33 0 40 -3 40 -20 0 -17 7 -20 45 -20 38 0
45 -3 45 -19 0 -15 10 -21 39 -26 27 -4 41 -13 44 -26 4 -15 14 -19 46 -19 34
0 41 -3 41 -20 0 -17 7 -20 40 -20 33 0 40 -3 40 -20 0 -18 7 -20 70 -20 63 0
70 2 70 20 0 17 7 20 40 20 33 0 40 3 40 20 0 17 7 20 45 20 38 0 45 3 45 19
0 15 10 21 40 26 30 5 40 11 40 26 0 16 7 19 45 19 38 0 45 3 45 20 0 17 7 20
40 20 33 0 40 3 40 20 0 17 7 20 45 20 38 0 45 3 45 19 0 16 9 21 45 27 35 5
45 10 45 25 0 15 7 19 40 19 33 0 40 3 40 20 0 17 7 20 41 20 32 0 42 4 46 20
4 16 14 20 44 20 35 0 39 3 39 25 0 23 4 25 45 25 38 0 45 3 45 20 0 17 7 20
40 20 33 0 40 3 40 20 0 17 7 20 45 20 38 0 45 3 45 20 0 17 7 20 40 20 36 0
40 3 40 25 0 23 4 25 45 25 38 0 45 3 45 20 0 17 7 20 40 20 33 0 40 3 40 20
0 17 7 20 45 20 38 0 45 3 45 19 0 15 10 21 40 26 30 5 40 11 40 26 0 16 7 19
45 19 38 0 45 3 45 20 0 17 7 20 40 20 33 0 40 3 40 20 0 17 7 20 45 20 38 0
45 3 45 19 0 16 9 21 45 27 35 5 45 10 45 25 0 15 7 19 40 19 33 0 40 3 40 20
0 17 7 20 41 20 32 0 42 4 46 20 4 16 14 20 44 20 35 0 39 3 39 25 0 23 4 25
45 25 38 0 45 3 45 20 0 17 7 20 40 20 33 0 40 3 40 20 0 17 7 20 45 20 38 0
45 3 45 20 0 17 7 20 40 20 36 0 40 3 40 25 0 23 4 25 45 25 38 0 45 3 45 20
0 17 7 20 40 20 33 0 40 3 40 20 0 17 7 20 45 20 38 0 45 3 45 19 0 15 10 21
40 26 30 5 40 11 40 26 0 16 7 19 45 19 38 0 45 3 45 20 0 17 7 20 40 20 33 0
40 3 40 20 0 17 7 20 45 20 38 0 45 3 45 19 0 16 9 21 45 27 35 5 45 10 45 25
0 15 7 19 40 19 33 0 40 3 40 20 0 17 7 20 41 20 32 0 42 4 46 20 4 16 14 20
44 20 35 0 39 3 39 25 0 23 4 25 45 25 38 0 45 3 45 20 0 17 7 20 40 20 33 0
40 3 40 20 0 17 7 20 45 20 25 0 45 4 45 9 0 11 -141 67 -399 157 -888 312
-1905 509 -2861 554 -215 10 -805 10 -1030 -1z"/>
<path d="M5530 19336 c-80 -41 -203 -108 -275 -148 l-130 -74 -3 -1877 -2
-1877 -1878 -2 -1877 -3 -84 -150 c-45 -82 -112 -206 -147 -275 l-63 -125 39
-3 c32 -3 40 -7 40 -23 0 -16 7 -19 40 -19 33 0 40 -3 40 -20 0 -17 7 -20 44
-20 39 0 45 -3 48 -22 2 -19 10 -24 46 -26 34 -3 42 -7 42 -23 0 -16 7 -19 40
-19 33 0 40 -3 40 -20 0 -17 7 -20 45 -20 38 0 45 -3 45 -20 0 -17 7 -20 39
-20 33 0 40 -4 43 -22 2 -19 10 -24 46 -26 34 -3 42 -7 42 -23 0 -16 7 -19 40
-19 33 0 40 -3 40 -20 0 -17 7 -20 45 -20 38 0 45 -3 45 -19 0 -15 10 -21 39
-26 27 -4 41 -13 44 -26 4 -15 14 -19 46 -19 34 0 41 -3 41 -20 0 -17 7 -20
40 -20 33 0 40 -3 40 -20 0 -17 7 -20 45 -20 38 0 45 -3 45 -19 0 -15 10 -21
39 -26 27 -4 41 -13 44 -26 4 -15 14 -19 46 -19 34 0 41 -3 41 -20 0 -17 7
-20 40 -20 33 0 40 -3 40 -20 0 -17 7 -20 44 -20 39 0 45 -3 48 -22 2 -19 10
-24 46 -26 34 -3 42 -7 42 -23 0 -16 7 -19 40 -19 33 0 40 -3 40 -20 0 -17 7
-20 45 -20 38 0 45 -3 45 -20 0 -17 7 -20 39 -20 33 0 40 -4 43 -22 2 -19 10
-24 46 -26 34 -3 42 -7 42 -23 0 -16 7 -19 40 -19 33 0 40 -3 40 -20 0 -17 7
-20 45 -20 38 0 45 -3 45 -19 0 -15 10 -21 39 -26 27 -4 41 -13 44 -26 4 -15
14 -19 46 -19 34 0 41 -3 41 -20 0 -17 7 -20 40 -20 33 0 40 -3 40 -20 0 -17
7 -20 45 -20 38 0 45 -3 45 -19 0 -15 10 -21 39 -26 27 -4 41 -13 44 -26 4
-15 14 -19 46 -19 34 0 41 -3 41 -20 0 -17 7 -20 40 -20 33 0 40 -3 40 -20 0
-17 7 -20 44 -20 39 0 45 -3 48 -22 2 -19 10 -24 46 -26 34 -3 42 -7 42 -23 0
-16 7 -19 40 -19 33 0 40 -3 40 -20 0 -17 7 -20 45 -20 38 0 45 -3 45 -20 0
-17 7 -20 39 -20 33 0 40 -4 43 -22 2 -19 10 -24 46 -26 34 -3 42 -7 42 -23 0
-16 7 -19 40 -19 33 0 40 -3 40 -20 0 -17 7 -20 45 -20 38 0 45 -3 45 -19 0
-15 10 -21 39 -26 27 -4 41 -13 44 -26 4 -15 14 -19 46 -19 34 0 41 -3 41 -20
0 -17 7 -20 40 -20 33 0 40 -3 40 -20 0 -17 7 -20 45 -20 38 0 45 -3 45 -19 0
-15 10 -21 39 -26 27 -4 41 -13 44 -26 4 -15 14 -19 46 -19 34 0 41 -3 41 -20
0 -17 7 -20 40 -20 33 0 40 -3 40 -20 0 -15 7 -20 25 -20 23 0 25 -4 25 -40 0
-36 -2 -40 -25 -40 -18 0 -25 -5 -25 -20 0 -13 -7 -20 -20 -20 -15 0 -20 -7
-20 -25 0 -18 -5 -25 -20 -25 -13 0 -20 -7 -20 -20 0 -13 -7 -20 -20 -20 -13
0 -20 -7 -20 -20 0 -15 -7 -20 -25 -20 -18 0 -25 -5 -25 -19 0 -10 -9 -21 -20
-24 -12 -3 -20 -14 -20 -26 0 -14 -6 -21 -20 -21 -13 0 -20 -7 -20 -20 0 -14
-7 -20 -21 -20 -12 0 -23 -8 -26 -20 -3 -11 -14 -20 -24 -20 -14 0 -19 -7 -19
-25 0 -18 -5 -25 -20 -25 -13 0 -20 -7 -20 -20 0 -13 -7 -20 -20 -20 -13 0
-20 -7 -20 -20 0 -15 -7 -20 -25 -20 -18 0 -25 -5 -25 -20 0 -13 -7 -20 -20
-20 -15 0 -20 -7 -20 -25 0 -18 -5 -25 -20 -25 -13 0 -20 -7 -20 -20 0 -13 -7
-20 -20 -20 -13 0 -20 -7 -20 -20 0 -15 -7 -20 -25 -20 -18 0 -25 -5 -25 -20
0 -13 -7 -20 -20 -20 -15 0 -20 -7 -20 -25 0 -18 -5 -25 -20 -25 -13 0 -20 -7
-20 -20 0 -13 -7 -20 -20 -20 -13 0 -20 -7 -20 -20 0 -15 -7 -20 -25 -20 -18
0 -25 -5 -25 -19 0 -10 -9 -21 -20 -24 -12 -3 -20 -14 -20 -26 0 -14 -6 -21
-20 -21 -13 0 -20 -7 -20 -20 0 -14 -7 -20 -21 -20 -12 0 -23 -8 -26 -20 -3
-11 -14 -20 -24 -20 -14 0 -19 -7 -19 -25 0 -18 -5 -25 -20 -25 -13 0 -20 -7
-20 -20 0 -13 -7 -20 -20 -20 -13 0 -20 -7 -20 -20 0 -15 -7 -20 -25 -20 -18
0 -25 -5 -25 -20 0 -13 -7 -20 -20 -20 -15 0 -20 -7 -20 -25 0 -18 -5 -25 -20
-25 -13 0 -20 -7 -20 -20 0 -13 -7 -20 -20 -20 -13 0 -20 -7 -20 -20 0 -15 -7
-20 -25 -20 -18 0 -25 -5 -25 -20 0 -13 -7 -20 -20 -20 -15 0 -20 -7 -20 -25
0 -18 -5 -25 -20 -25 -13 0 -20 -7 -20 -20 0 -13 -7 -20 -20 -20 -13 0 -20 -7
-20 -20 0 -15 -7 -20 -25 -20 -18 0 -25 -5 -25 -19 0 -10 -9 -21 -20 -24 -12
-3 -20 -14 -20 -26 0 -14 -6 -21 -20 -21 -13 0 -20 -7 -20 -20 0 -14 -7 -20
-21 -20 -12 0 -23 -8 -26 -20 -3 -11 -14 -20 -24 -20 -14 0 -19 -7 -19 -25 0
-18 -5 -25 -20 -25 -13 0 -20 -7 -20 -20 0 -13 -7 -20 -20 -20 -13 0 -20 -7
-20 -20 0 -15 -7 -20 -25 -20 -18 0 -25 -5 -25 -20 0 -13 -7 -20 -20 -20 -15
0 -20 -7 -20 -25 0 -18 -5 -25 -20 -25 -13 0 -20 -7 -20 -20 0 -13 -7 -20 -20
-20 -13 0 -20 -7 -20 -20 0 -15 -7 -20 -25 -20 -18 0 -25 -5 -25 -20 0 -13 -7
-20 -20 -20 -15 0 -20 -7 -20 -25 0 -18 -5 -25 -20 -25 -13 0 -20 -7 -20 -20
0 -13 -7 -20 -20 -20 -13 0 -20 -7 -20 -20 0 -15 -7 -20 -25 -20 -18 0 -25 -5
-25 -19 0 -10 -9 -21 -20 -24 -12 -3 -20 -14 -20 -26 0 -14 -6 -21 -20 -21
-13 0 -20 -7 -20 -20 0 -14 -7 -20 -21 -20 -12 0 -23 -8 -26 -20 -3 -11 -14
-20 -24 -20 -14 0 -19 -7 -19 -25 0 -18 -5 -25 -20 -25 -13 0 -20 -7 -20 -20
0 -13 -7 -20 -20 -20 -13 0 -20 -7 -20 -20 0 -15 -7 -20 -25 -20 -18 0 -25 -5
-25 -20 0 -13 -7 -20 -20 -20 -15 0 -20 -7 -20 -25 0 -18 -5 -25 -20 -25 -15
0 -20 -7 -20 -25 0 -18 5 -25 20 -25 13 0 20 -7 20 -20 0 -13 7 -20 20 -20 13
0 20 -7 20 -20 0 -15 7 -20 25 -20 18 0 25 -5 25 -20 0 -13 7 -20 20 -20 15 0
20 -7 20 -25 0 -18 5 -25 20 -25 13 0 20 -7 20 -20 0 -13 7 -20 20 -20 13 0
20 -7 20 -20 0 -15 7 -20 25 -20 20 0 25 -5 25 -25 0 -18 5 -25 20 -25 13 0
20 -7 20 -20 0 -13 7 -20 20 -20 13 0 20 -7 20 -20 0 -15 7 -20 25 -20 18 0
25 -5 25 -20 0 -13 7 -20 20 -20 15 0 20 -7 20 -25 0 -18 5 -25 20 -25 13 0
20 -7 20 -20 0 -13 7 -20 20 -20 13 0 20 -7 20 -20 0 -15 7 -20 25 -20 18 0
25 -5 25 -20 0 -13 7 -20 20 -20 15 0 20 -7 20 -25 0 -18 5 -25 20 -25 13 0
20 -7 20 -20 0 -13 7 -20 20 -20 13 0 20 -7 20 -20 0 -15 7 -20 25 -20 18 0
25 -5 25 -20 0 -13 7 -20 20 -20 15 0 20 -7 20 -25 0 -18 5 -25 20 -25 13 0
20 -7 20 -20 0 -13 7 -20 20 -20 13 0 20 -7 20 -20 0 -15 7 -20 25 -20 20 0
25 -5 25 -25 0 -18 5 -25 20 -25 13 0 20 -7 20 -20 0 -13 7 -20 20 -20 13 0
20 -7 20 -20 0 -15 7 -20 25 -20 18 0 25 -5 25 -20 0 -13 7 -20 20 -20 15 0
20 -7 20 -25 0 -18 5 -25 20 -25 13 0 20 -7 20 -20 0 -13 7 -20 20 -20 13 0
20 -7 20 -20 0 -15 7 -20 25 -20 18 0 25 -5 25 -20 0 -13 7 -20 20 -20 15 0
20 -7 20 -25 0 -18 5 -25 20 -25 13 0 20 -7 20 -20 0 -13 7 -20 20 -20 13 0
20 -7 20 -20 0 -15 7 -20 25 -20 18 0 25 -5 25 -20 0 -13 7 -20 20 -20 15 0
20 -7 20 -25 0 -18 5 -25 20 -25 13 0 20 -7 20 -20 0 -13 7 -20 20 -20 13 0
20 -7 20 -20 0 -15 7 -20 25 -20 20 0 25 -5 25 -25 0 -18 5 -25 20 -25 13 0
20 -7 20 -20 0 -13 7 -20 20 -20 13 0 20 -7 20 -20 0 -15 7 -20 25 -20 18 0
25 -5 25 -20 0 -13 7 -20 20 -20 15 0 20 -7 20 -25 0 -18 5 -25 20 -25 13 0
20 -7 20 -20 0 -13 7 -20 20 -20 13 0 20 -7 20 -20 0 -15 7 -20 25 -20 18 0
25 -5 25 -20 0 -13 7 -20 20 -20 15 0 20 -7 20 -25 0 -18 5 -25 20 -25 13 0
20 -7 20 -20 0 -13 7 -20 20 -20 13 0 20 -7 20 -20 0 -15 7 -20 25 -20 18 0
25 -5 25 -20 0 -13 7 -20 20 -20 15 0 20 -7 20 -25 0 -18 5 -25 20 -25 13 0
20 -7 20 -20 0 -13 7 -20 20 -20 13 0 20 -7 20 -20 0 -15 7 -20 25 -20 20 0
25 -5 25 -25 0 -18 5 -25 20 -25 13 0 20 -7 20 -20 0 -13 7 -20 20 -20 13 0
20 -7 20 -20 0 -15 7 -20 25 -20 18 0 25 -5 25 -20 0 -13 7 -20 20 -20 15 0
20 -7 20 -25 0 -18 5 -25 20 -25 13 0 20 -7 20 -20 0 -13 7 -20 20 -20 13 0
20 -7 20 -20 0 -15 7 -20 25 -20 23 0 25 -4 25 -40 0 -34 -3 -40 -21 -40 -12
0 -23 -8 -26 -20 -4 -16 -14 -20 -44 -20 -32 0 -39 -4 -39 -19 0 -15 -10 -20
-45 -25 -36 -6 -45 -11 -45 -27 0 -16 -7 -19 -40 -19 -33 0 -40 -3 -40 -20 0
-17 -7 -20 -45 -20 -38 0 -45 -3 -45 -20 0 -17 -7 -20 -40 -20 -33 0 -40 -3
-40 -19 0 -16 -9 -21 -45 -27 -35 -5 -45 -10 -45 -25 0 -15 -7 -19 -40 -19
-33 0 -40 -3 -40 -20 0 -17 -7 -20 -45 -20 -38 0 -45 -3 -45 -20 0 -17 -7 -20
-40 -20 -36 0 -40 -2 -40 -25 0 -23 -4 -25 -45 -25 -38 0 -45 -3 -45 -20 0
-17 -7 -20 -40 -20 -33 0 -40 -3 -40 -20 0 -17 -7 -20 -45 -20 -38 0 -45 -3
-45 -20 0 -17 -7 -20 -40 -20 -36 0 -40 -2 -40 -25 0 -23 -4 -25 -45 -25 -38
0 -45 -3 -45 -20 0 -17 -7 -20 -41 -20 -32 0 -42 -4 -46 -20 -4 -16 -14 -20
-44 -20 -32 0 -39 -4 -39 -19 0 -15 -10 -20 -45 -25 -36 -6 -45 -11 -45 -27 0
-16 -7 -19 -40 -19 -33 0 -40 -3 -40 -20 0 -17 -7 -20 -45 -20 -38 0 -45 -3
-45 -20 0 -17 -7 -20 -40 -20 -33 0 -40 -3 -40 -19 0 -16 -9 -21 -45 -27 -35
-5 -45 -10 -45 -25 0 -15 -7 -19 -40 -19 -33 0 -40 -3 -40 -20 0 -17 -7 -20
-45 -20 -38 0 -45 -3 -45 -20 0 -17 -7 -20 -40 -20 -36 0 -40 -2 -40 -25 0
-23 -4 -25 -45 -25 -38 0 -45 -3 -45 -20 0 -17 -7 -20 -40 -20 -33 0 -40 -3
-40 -20 0 -17 -7 -20 -45 -20 -38 0 -45 -3 -45 -20 0 -17 -7 -20 -40 -20 -36
0 -40 -2 -40 -25 0 -23 -4 -25 -45 -25 -38 0 -45 -3 -45 -20 0 -17 -7 -20 -41
-20 -32 0 -42 -4 -46 -20 -4 -16 -14 -20 -44 -20 -32 0 -39 -4 -39 -19 0 -15
-10 -20 -45 -25 -36 -6 -45 -11 -45 -27 0 -16 -7 -19 -40 -19 -33 0 -40 -3
-40 -20 0 -17 -7 -20 -45 -20 -38 0 -45 -3 -45 -20 0 -17 -7 -20 -40 -20 -33
0 -40 -3 -40 -19 0 -16 -9 -21 -45 -27 -35 -5 -45 -10 -45 -25 0 -15 -7 -19
-40 -19 -33 0 -40 -3 -40 -20 0 -17 -7 -20 -45 -20 -38 0 -45 -3 -45 -20 0
-17 -7 -20 -40 -20 -36 0 -40 -2 -40 -25 0 -23 -4 -25 -45 -25 -38 0 -45 -3
-45 -20 0 -17 -7 -20 -40 -20 -33 0 -40 -3 -40 -20 0 -17 -7 -20 -45 -20 -38
0 -45 -3 -45 -20 0 -17 -7 -20 -40 -20 -36 0 -40 -2 -40 -25 0 -23 -4 -25 -45
-25 -38 0 -45 -3 -45 -20 0 -17 -7 -20 -41 -20 -32 0 -42 -4 -46 -20 -4 -16
-14 -20 -44 -20 -32 0 -39 -3 -39 -20 0 -15 -7 -20 -26 -20 -22 0 -25 -3 -20
-22 6 -24 119 -240 208 -398 l54 -95 1877 -3 1877 -2 2 -1877 3 -1878 130 -73
c72 -41 195 -107 275 -147 129 -65 145 -71 148 -54 2 10 10 19 17 19 9 0 16
17 21 45 5 35 10 45 25 45 15 0 19 7 19 40 0 33 3 40 19 40 16 0 21 9 27 45 4
28 11 45 20 45 8 0 16 16 20 40 5 30 11 40 25 40 16 0 19 8 19 45 0 38 3 45
20 45 17 0 20 7 20 40 0 33 3 40 19 40 16 0 21 9 27 45 5 35 10 45 25 45 15 0
19 7 19 40 0 33 3 40 20 40 17 0 20 7 20 45 0 38 3 45 20 45 17 0 20 7 20 40
0 33 3 40 19 40 16 0 21 9 27 45 5 35 10 45 25 45 15 0 19 7 19 40 0 33 3 40
20 40 17 0 20 7 20 45 0 38 3 45 19 45 15 0 21 10 26 39 4 27 13 41 26 44 15
4 19 14 19 46 0 34 3 41 20 41 17 0 20 7 20 40 0 33 3 40 20 40 17 0 20 7 20
45 0 38 3 45 19 45 15 0 21 10 26 39 4 27 13 41 26 44 15 4 19 14 19 46 0 34
3 41 20 41 17 0 20 7 20 40 0 33 3 40 20 40 17 0 20 7 20 45 0 38 3 45 19 45
16 0 21 9 27 45 5 35 10 45 25 45 15 0 19 7 19 40 0 33 3 40 20 40 17 0 20 7
20 45 0 38 3 45 19 45 15 0 21 10 26 39 4 27 13 41 26 44 15 4 19 14 19 46 0
34 3 41 20 41 17 0 20 7 20 40 0 33 3 40 20 40 17 0 20 7 20 45 0 38 3 45 19
45 15 0 21 10 26 39 4 27 13 41 26 44 15 4 19 14 19 46 0 34 3 41 20 41 17 0
20 7 20 40 0 33 3 40 20 40 17 0 20 7 20 45 0 38 3 45 19 45 15 0 21 10 26 39
4 27 13 41 26 44 15 4 19 14 19 46 0 34 3 41 20 41 17 0 20 7 20 40 0 33 3 40
20 40 17 0 20 7 20 45 0 41 2 45 25 45 22 0 25 4 25 39 0 30 4 40 20 44 16 4
20 14 20 46 0 34 3 41 20 41 17 0 20 7 20 40 0 33 4 40 19 40 15 0 20 10 25
45 6 36 11 45 27 45 16 0 19 7 19 45 0 38 3 45 20 45 17 0 20 7 20 40 0 33 3
40 20 40 17 0 20 7 20 45 0 38 3 45 19 45 15 0 21 10 26 40 5 30 11 40 26 40
16 0 19 7 19 45 0 38 3 45 20 45 17 0 20 7 20 40 0 33 3 40 20 40 17 0 20 7
20 45 0 38 3 45 20 45 15 0 20 -7 20 -25 0 -18 5 -25 20 -25 13 0 20 -7 20
-20 0 -13 7 -20 20 -20 13 0 20 -7 20 -20 0 -15 7 -20 25 -20 18 0 25 -5 25
-20 0 -13 7 -20 20 -20 15 0 20 -7 20 -25 0 -18 5 -25 20 -25 13 0 20 -7 20
-20 0 -13 7 -20 20 -20 13 0 20 -7 20 -20 0 -15 7 -20 25 -20 20 0 25 -5 25
-25 0 -18 5 -25 20 -25 13 0 20 -7 20 -20 0 -13 7 -20 20 -20 13 0 20 -7 20
-20 0 -15 7 -20 25 -20 18 0 25 -5 25 -20 0 -13 7 -20 20 -20 15 0 20 -7 20
-25 0 -18 5 -25 20 -25 13 0 20 -7 20 -20 0 -13 7 -20 20 -20 13 0 20 -7 20
-20 0 -15 7 -20 25 -20 18 0 25 -5 25 -20 0 -13 7 -20 20 -20 15 0 20 -7 20
-25 0 -18 5 -25 20 -25 13 0 20 -7 20 -20 0 -13 7 -20 20 -20 13 0 20 -7 20
-20 0 -15 7 -20 25 -20 18 0 25 -5 25 -20 0 -13 7 -20 20 -20 15 0 20 -7 20
-25 0 -18 5 -25 20 -25 13 0 20 -7 20 -20 0 -13 7 -20 20 -20 13 0 20 -7 20
-20 0 -15 7 -20 25 -20 20 0 25 -5 25 -25 0 -18 5 -25 20 -25 13 0 20 -7 20
-20 0 -13 7 -20 20 -20 13 0 20 -7 20 -20 0 -15 7 -20 25 -20 18 0 25 -5 25
-20 0 -13 7 -20 20 -20 15 0 20 -7 20 -25 0 -18 5 -25 20 -25 13 0 20 -7 20
-20 0 -13 7 -20 20 -20 13 0 20 -7 20 -20 0 -15 7 -20 25 -20 18 0 25 -5 25
-20 0 -13 7 -20 20 -20 15 0 20 -7 20 -25 0 -18 5 -25 20 -25 13 0 20 -7 20
-20 0 -13 7 -20 20 -20 13 0 20 -7 20 -20 0 -15 7 -20 25 -20 18 0 25 -5 25
-20 0 -13 7 -20 20 -20 15 0 20 -7 20 -25 0 -18 5 -25 20 -25 13 0 20 -7 20
-20 0 -13 7 -20 20 -20 13 0 20 -7 20 -20 0 -15 7 -20 25 -20 20 0 25 -5 25
-25 0 -18 5 -25 20 -25 13 0 20 -7 20 -20 0 -13 7 -20 20 -20 13 0 20 -7 20
-20 0 -15 7 -20 25 -20 18 0 25 -5 25 -20 0 -13 7 -20 20 -20 15 0 20 -7 20
-25 0 -18 5 -25 20 -25 13 0 20 -7 20 -20 0 -13 7 -20 20 -20 13 0 20 -7 20
-20 0 -15 7 -20 25 -20 18 0 25 -5 25 -20 0 -13 7 -20 20 -20 15 0 20 -7 20
-25 0 -18 5 -25 20 -25 13 0 20 -7 20 -20 0 -13 7 -20 20 -20 13 0 20 -7 20
-20 0 -15 7 -20 25 -20 18 0 25 -5 25 -20 0 -13 7 -20 20 -20 15 0 20 -7 20
-25 0 -18 5 -25 20 -25 13 0 20 -7 20 -20 0 -13 7 -20 20 -20 13 0 20 -7 20
-20 0 -15 7 -20 25 -20 20 0 25 -5 25 -25 0 -18 5 -25 20 -25 13 0 20 -7 20
-20 0 -13 7 -20 20 -20 13 0 20 -7 20 -20 0 -15 7 -20 25 -20 18 0 25 -5 25
-20 0 -13 7 -20 20 -20 15 0 20 -7 20 -25 0 -18 5 -25 20 -25 13 0 20 -7 20
-20 0 -13 7 -20 20 -20 13 0 20 -7 20 -20 0 -15 7 -20 25 -20 18 0 25 -5 25
-20 0 -15 7 -20 25 -20 18 0 25 5 25 20 0 13 7 20 20 20 13 0 20 7 20 20 0 13
7 20 20 20 13 0 20 7 20 20 0 13 7 20 20 20 15 0 20 7 20 25 0 20 5 25 25 25
18 0 25 5 25 20 0 13 7 20 20 20 13 0 20 7 20 20 0 13 7 20 20 20 13 0 20 7
20 19 0 13 8 21 23 23 14 2 23 11 25 26 2 14 10 22 23 22 12 0 19 7 19 20 0
13 7 20 20 20 13 0 20 7 20 20 0 13 7 20 20 20 15 0 20 7 20 25 0 20 5 25 25
25 18 0 25 5 25 20 0 13 7 20 20 20 13 0 20 7 20 20 0 13 7 20 20 20 13 0 20
7 20 20 0 13 7 20 20 20 15 0 20 7 20 25 0 20 5 25 25 25 18 0 25 5 25 20 0
13 7 20 20 20 13 0 20 7 20 20 0 13 7 20 20 20 13 0 20 7 20 20 0 13 7 20 20
20 15 0 20 7 20 25 0 20 5 25 25 25 18 0 25 5 25 20 0 13 7 20 20 20 13 0 20
7 20 20 0 13 7 20 20 20 13 0 20 7 20 19 0 13 8 21 23 23 14 2 23 11 25 26 2
14 10 22 23 22 12 0 19 7 19 20 0 13 7 20 20 20 13 0 20 7 20 20 0 13 7 20 20
20 15 0 20 7 20 25 0 20 5 25 25 25 18 0 25 5 25 20 0 13 7 20 20 20 13 0 20
7 20 20 0 13 7 20 20 20 13 0 20 7 20 20 0 13 7 20 20 20 15 0 20 7 20 25 0
20 5 25 25 25 18 0 25 5 25 20 0 13 7 20 20 20 13 0 20 7 20 20 0 13 7 20 20
20 13 0 20 7 20 20 0 13 7 20 20 20 15 0 20 7 20 25 0 20 5 25 25 25 18 0 25
5 25 20 0 13 7 20 20 20 13 0 20 7 20 20 0 13 7 20 20 20 13 0 20 7 20 19 0
13 8 21 23 23 14 2 23 11 25 25 2 15 10 23 23 23 12 0 19 7 19 20 0 13 7 20
20 20 13 0 20 7 20 20 0 13 7 20 20 20 15 0 20 7 20 25 0 20 5 25 25 25 18 0
25 5 25 20 0 13 7 20 20 20 13 0 20 7 20 20 0 13 7 20 20 20 13 0 20 7 20 20
0 13 7 20 20 20 15 0 20 7 20 25 0 20 5 25 25 25 18 0 25 5 25 20 0 13 7 20
20 20 13 0 20 7 20 20 0 13 7 20 20 20 13 0 20 7 20 20 0 13 7 20 20 20 15 0
20 7 20 25 0 20 5 25 25 25 18 0 25 5 25 20 0 13 7 20 20 20 13 0 20 7 20 20
0 13 7 20 20 20 13 0 20 7 20 19 0 13 8 21 23 23 14 2 23 11 25 26 2 14 10 22
23 22 12 0 19 7 19 20 0 13 7 20 20 20 13 0 20 7 20 20 0 13 7 20 20 20 15 0
20 7 20 25 0 20 5 25 25 25 18 0 25 5 25 20 0 13 7 20 20 20 13 0 20 7 20 20
0 13 7 20 20 20 13 0 20 7 20 20 0 13 7 20 20 20 15 0 20 7 20 25 0 18 5 25
20 25 15 0 20 -7 20 -25 0 -18 5 -25 20 -25 17 0 20 -7 20 -40 0 -33 3 -40 19
-40 16 0 20 -8 23 -43 2 -35 7 -43 26 -45 18 -3 22 -10 22 -43 0 -32 3 -39 20
-39 17 0 20 -7 20 -45 0 -38 3 -45 20 -45 17 0 20 -7 20 -40 0 -33 3 -40 19
-40 16 0 20 -8 23 -43 2 -35 7 -43 26 -45 18 -3 22 -10 22 -43 0 -32 3 -39 20
-39 17 0 20 -7 20 -45 0 -38 3 -45 20 -45 17 0 20 -7 20 -39 0 -33 4 -40 23
-43 18 -2 23 -10 25 -45 3 -35 7 -43 23 -43 16 0 19 -7 19 -41 0 -32 4 -42 20
-46 16 -4 20 -14 20 -44 0 -32 4 -39 19 -39 16 0 20 -8 23 -42 2 -36 7 -44 26
-46 18 -3 22 -10 22 -43 0 -32 3 -39 20 -39 17 0 20 -7 20 -45 0 -38 3 -45 20
-45 17 0 20 -7 20 -40 0 -33 3 -40 19 -40 16 0 20 -8 23 -42 2 -36 7 -44 26
-46 18 -3 22 -10 22 -43 0 -32 3 -39 20 -39 17 0 20 -7 20 -45 0 -38 3 -45 20
-45 17 0 20 -7 20 -40 0 -33 3 -40 19 -40 16 0 20 -8 23 -43 2 -35 7 -43 26
-45 18 -3 22 -10 22 -43 0 -32 3 -39 20 -39 17 0 20 -7 20 -45 0 -38 3 -45 20
-45 17 0 20 -7 20 -39 0 -33 4 -40 23 -43 18 -2 23 -10 25 -46 3 -34 7 -42 23
-42 16 0 19 -7 19 -41 0 -32 4 -42 20 -46 16 -4 20 -14 20 -44 0 -32 4 -39 19
-39 16 0 20 -8 23 -42 2 -36 7 -44 26 -46 18 -3 22 -10 22 -43 0 -32 3 -39 20
-39 17 0 20 -7 20 -45 0 -38 3 -45 20 -45 17 0 20 -7 20 -40 0 -33 3 -40 19
-40 16 0 20 -8 23 -42 2 -36 7 -44 26 -46 18 -3 22 -10 22 -43 0 -32 3 -39 20
-39 17 0 20 -7 20 -45 0 -38 3 -45 20 -45 17 0 20 -7 20 -40 0 -33 3 -40 19
-40 16 0 21 -9 27 -45 5 -35 10 -45 25 -45 15 0 19 -7 19 -40 0 -33 3 -40 20
-40 17 0 20 -7 20 -45 0 -38 3 -45 20 -45 17 0 20 -7 20 -39 0 -33 4 -40 23
-43 18 -2 23 -10 25 -45 3 -35 7 -43 23 -43 16 0 19 -7 19 -40 0 -33 3 -40 20
-40 17 0 20 -7 20 -45 0 -38 3 -45 19 -45 16 0 20 -8 23 -43 2 -35 7 -43 26
-45 18 -3 22 -10 22 -43 0 -32 3 -39 20 -39 17 0 20 -7 20 -45 0 -38 3 -45 20
-45 17 0 20 -7 20 -40 0 -33 3 -40 20 -40 15 0 20 -7 20 -25 0 -14 5 -25 11
-25 16 0 219 104 374 192 l130 74 3 1877 2 1877 1877 2 1877 3 54 95 c30 52
90 163 133 247 93 177 96 198 23 209 -27 4 -44 11 -44 20 0 8 -16 16 -40 20
-30 5 -40 11 -40 25 0 16 -8 19 -45 19 -38 0 -45 3 -45 19 0 15 -10 21 -40 26
-24 4 -40 12 -40 20 0 9 -17 16 -45 21 -35 5 -45 10 -45 25 0 15 -7 19 -40 19
-33 0 -40 3 -40 20 0 17 -7 20 -41 20 -32 0 -42 4 -46 19 -3 13 -17 22 -43 26
-26 4 -40 13 -43 26 -4 15 -14 19 -46 19 -34 0 -41 3 -41 20 0 17 -7 20 -40
20 -33 0 -40 3 -40 20 0 17 -7 20 -41 20 -32 0 -42 4 -46 19 -3 13 -17 22 -43
26 -26 4 -40 13 -43 26 -4 15 -14 19 -46 19 -34 0 -41 3 -41 20 0 17 -7 20
-40 20 -33 0 -40 4 -40 19 0 15 -10 20 -45 25 -36 6 -45 11 -45 27 0 15 -7 19
-39 19 -30 0 -40 4 -44 20 -4 16 -14 20 -46 20 -34 0 -41 3 -41 20 0 17 -7 20
-40 20 -33 0 -40 4 -40 19 0 15 -10 20 -45 25 -36 6 -45 11 -45 27 0 15 -7 19
-39 19 -30 0 -40 4 -44 20 -4 16 -14 20 -46 20 -34 0 -41 3 -41 20 0 17 -7 20
-41 20 -33 0 -42 4 -46 20 -4 14 -17 22 -44 26 -29 5 -39 11 -39 25 0 16 -8
19 -45 19 -38 0 -45 3 -45 20 0 17 -7 20 -40 20 -33 0 -40 4 -40 19 0 15 -10
20 -45 25 -36 6 -45 11 -45 27 0 16 -7 19 -40 19 -33 0 -40 3 -40 20 0 17 -7
20 -45 20 -38 0 -45 3 -45 20 0 17 -7 20 -40 20 -33 0 -40 3 -40 19 0 16 -9
21 -45 27 -35 5 -45 10 -45 25 0 15 -7 19 -40 19 -33 0 -40 3 -40 20 0 17 -7
20 -45 20 -38 0 -45 3 -45 20 0 17 -7 20 -40 20 -33 0 -40 3 -40 19 0 16 -9
21 -45 27 -35 5 -45 10 -45 25 0 15 -7 19 -40 19 -33 0 -40 3 -40 20 0 17 -7
20 -45 20 -38 0 -45 3 -45 20 0 17 -7 20 -39 20 -33 0 -40 4 -43 23 -2 18 -10
23 -45 25 -35 3 -43 7 -43 23 0 15 -7 19 -39 19 -30 0 -40 4 -44 20 -4 16 -14
20 -46 20 -34 0 -41 3 -41 19 0 15 -10 20 -45 25 -36 6 -45 11 -45 27 0 16 -7
19 -40 19 -33 0 -40 3 -40 20 0 17 -7 20 -45 20 -38 0 -45 3 -45 20 0 17 -7
20 -40 20 -33 0 -40 3 -40 19 0 16 -9 21 -45 27 -35 5 -45 10 -45 25 0 15 -7
19 -40 19 -33 0 -40 3 -40 20 0 17 -7 20 -45 20 -38 0 -45 3 -45 20 0 15 7 20
25 20 18 0 25 5 25 20 0 13 7 20 20 20 13 0 20 7 20 20 0 13 7 20 20 20 13 0
20 7 20 20 0 13 7 20 20 20 15 0 20 7 20 25 0 20 5 25 25 25 18 0 25 5 25 20
0 13 7 20 20 20 13 0 20 7 20 20 0 13 7 20 20 20 13 0 20 7 20 19 0 13 8 21
23 23 14 2 23 11 25 26 2 14 10 22 23 22 12 0 19 7 19 20 0 13 7 20 20 20 13
0 20 7 20 20 0 13 7 20 20 20 15 0 20 7 20 25 0 20 5 25 25 25 18 0 25 5 25
20 0 13 7 20 20 20 13 0 20 7 20 20 0 13 7 20 20 20 13 0 20 7 20 20 0 13 7
20 20 20 15 0 20 7 20 25 0 20 5 25 25 25 18 0 25 5 25 20 0 13 7 20 20 20 13
0 20 7 20 20 0 13 7 20 20 20 13 0 20 7 20 20 0 13 7 20 20 20 15 0 20 7 20
25 0 20 5 25 25 25 18 0 25 5 25 20 0 13 7 20 20 20 13 0 20 7 20 20 0 13 7
20 20 20 13 0 20 7 20 19 0 13 8 21 23 23 14 2 23 11 25 26 2 14 10 22 23 22
12 0 19 7 19 20 0 13 7 20 20 20 13 0 20 7 20 20 0 13 7 20 20 20 15 0 20 7
20 25 0 20 5 25 25 25 18 0 25 5 25 20 0 13 7 20 20 20 13 0 20 7 20 20 0 13
7 20 20 20 13 0 20 7 20 20 0 13 7 20 20 20 15 0 20 7 20 25 0 20 5 25 25 25
18 0 25 5 25 20 0 13 7 20 20 20 13 0 20 7 20 20 0 13 7 20 20 20 13 0 20 7
20 20 0 13 7 20 20 20 15 0 20 7 20 25 0 20 5 25 25 25 18 0 25 5 25 20 0 13
7 20 20 20 13 0 20 7 20 20 0 13 7 20 20 20 13 0 20 7 20 19 0 13 8 21 23 23
14 2 23 11 25 26 2 14 10 22 23 22 12 0 19 7 19 20 0 13 7 20 20 20 13 0 20 7
20 20 0 13 7 20 20 20 15 0 20 7 20 25 0 20 5 25 25 25 18 0 25 5 25 20 0 13
7 20 20 20 13 0 20 7 20 20 0 13 7 20 20 20 13 0 20 7 20 20 0 13 7 20 20 20
15 0 20 7 20 25 0 20 5 25 25 25 18 0 25 5 25 20 0 13 7 20 20 20 13 0 20 7
20 20 0 13 7 20 20 20 13 0 20 7 20 20 0 13 7 20 20 20 15 0 20 7 20 25 0 20
5 25 25 25 18 0 25 5 25 20 0 13 7 20 20 20 13 0 20 7 20 20 0 13 7 20 20 20
13 0 20 7 20 19 0 13 8 21 23 23 14 2 23 11 25 26 2 14 10 22 23 22 12 0 19 7
19 20 0 13 7 20 20 20 13 0 20 7 20 20 0 13 7 20 20 20 15 0 20 7 20 25 0 20
5 25 25 25 18 0 25 5 25 20 0 13 7 20 20 20 13 0 20 7 20 20 0 13 7 20 20 20
13 0 20 7 20 20 0 13 7 20 20 20 15 0 20 7 20 25 0 18 -5 25 -20 25 -15 0 -20
7 -20 25 0 18 -5 25 -20 25 -13 0 -20 7 -20 20 0 13 -7 20 -20 20 -13 0 -20 7
-20 20 0 15 -7 20 -25 20 -18 0 -25 5 -25 20 0 13 -7 20 -20 20 -15 0 -20 7
-20 25 0 18 -5 25 -20 25 -13 0 -20 7 -20 20 0 13 -7 20 -20 20 -13 0 -20 7
-20 20 0 15 -7 20 -25 20 -20 0 -25 5 -25 25 0 18 -5 25 -20 25 -13 0 -20 7
-20 20 0 13 -7 20 -20 20 -13 0 -20 7 -20 20 0 15 -7 20 -25 20 -18 0 -25 5
-25 20 0 13 -7 20 -20 20 -15 0 -20 7 -20 25 0 18 -5 25 -20 25 -13 0 -20 7
-20 20 0 13 -7 20 -20 20 -13 0 -20 7 -20 20 0 15 -7 20 -25 20 -18 0 -25 5
-25 20 0 13 -7 20 -20 20 -15 0 -20 7 -20 25 0 18 -5 25 -20 25 -13 0 -20 7
-20 20 0 13 -7 20 -20 20 -13 0 -20 7 -20 20 0 15 -7 20 -25 20 -18 0 -25 5
-25 20 0 13 -7 20 -20 20 -15 0 -20 7 -20 25 0 18 -5 25 -20 25 -13 0 -20 7
-20 20 0 13 -7 20 -20 20 -13 0 -20 7 -20 20 0 15 -7 20 -25 20 -20 0 -25 5
-25 25 0 18 -5 25 -20 25 -13 0 -20 7 -20 20 0 13 -7 20 -20 20 -13 0 -20 7
-20 20 0 15 -7 20 -25 20 -18 0 -25 5 -25 20 0 13 -7 20 -20 20 -15 0 -20 7
-20 25 0 18 -5 25 -20 25 -13 0 -20 7 -20 20 0 13 -7 20 -20 20 -13 0 -20 7
-20 20 0 15 -7 20 -25 20 -18 0 -25 5 -25 20 0 13 -7 20 -20 20 -15 0 -20 7
-20 25 0 18 -5 25 -20 25 -13 0 -20 7 -20 20 0 13 -7 20 -20 20 -13 0 -20 7
-20 20 0 15 -7 20 -25 20 -18 0 -25 5 -25 20 0 13 -7 20 -20 20 -15 0 -20 7
-20 25 0 18 -5 25 -20 25 -13 0 -20 7 -20 20 0 13 -7 20 -20 20 -13 0 -20 7
-20 20 0 15 -7 20 -25 20 -20 0 -25 5 -25 25 0 18 -5 25 -20 25 -13 0 -20 7
-20 20 0 13 -7 20 -20 20 -13 0 -20 7 -20 20 0 15 -7 20 -25 20 -18 0 -25 5
-25 20 0 13 -7 20 -20 20 -15 0 -20 7 -20 25 0 18 -5 25 -20 25 -13 0 -20 7
-20 20 0 13 -7 20 -20 20 -13 0 -20 7 -20 20 0 15 -7 20 -25 20 -18 0 -25 5
-25 20 0 13 -7 20 -20 20 -15 0 -20 7 -20 25 0 18 -5 25 -20 25 -13 0 -20 7
-20 20 0 13 -7 20 -20 20 -13 0 -20 7 -20 20 0 15 -7 20 -25 20 -18 0 -25 5
-25 20 0 13 -7 20 -20 20 -15 0 -20 7 -20 25 0 18 -5 25 -20 25 -13 0 -20 7
-20 20 0 13 -7 20 -20 20 -13 0 -20 7 -20 20 0 15 -7 20 -25 20 -20 0 -25 5
-25 25 0 18 -5 25 -20 25 -13 0 -20 7 -20 20 0 13 -7 20 -20 20 -13 0 -20 7
-20 20 0 15 -7 20 -25 20 -18 0 -25 5 -25 20 0 13 -7 20 -20 20 -15 0 -20 7
-20 25 0 18 -5 25 -20 25 -13 0 -20 7 -20 20 0 13 -7 20 -20 20 -13 0 -20 7
-20 20 0 15 -7 20 -25 20 -18 0 -25 5 -25 20 0 17 7 20 45 20 38 0 45 3 45 20
0 17 7 20 40 20 33 0 40 3 40 20 0 17 7 20 45 20 38 0 45 3 45 19 0 15 10 21
40 26 30 5 40 11 40 26 0 16 7 19 45 19 38 0 45 3 45 20 0 17 7 20 40 20 33 0
40 3 40 20 0 17 7 20 45 20 38 0 45 3 45 19 0 16 9 21 45 27 35 5 45 10 45 25
0 15 7 19 40 19 33 0 40 3 40 20 0 17 7 20 41 20 32 0 42 4 46 20 4 16 14 20
44 20 35 0 39 3 39 25 0 23 4 25 45 25 38 0 45 3 45 20 0 17 7 20 40 20 33 0
40 3 40 20 0 17 7 20 41 20 32 0 42 4 46 19 3 13 17 22 44 26 29 5 39 11 39
26 0 16 7 19 45 19 38 0 45 3 45 20 0 17 7 20 40 20 33 0 40 3 40 20 0 17 7
20 41 20 32 0 42 4 46 19 3 13 17 22 44 26 29 5 39 11 39 26 0 16 7 19 45 19
38 0 45 3 45 20 0 17 7 20 40 20 33 0 40 3 40 20 0 17 7 20 41 20 32 0 42 4
46 19 3 13 17 22 44 26 29 5 39 11 39 26 0 16 7 19 45 19 38 0 45 3 45 20 0
17 7 20 40 20 33 0 40 4 40 19 0 15 10 20 45 25 36 6 45 11 45 27 0 16 7 19
45 19 38 0 45 3 45 20 0 17 7 20 40 20 33 0 40 3 40 20 0 17 7 20 41 20 32 0
42 4 46 19 3 13 17 22 44 26 29 5 39 11 39 26 0 16 7 19 45 19 38 0 45 3 45
20 0 17 7 20 40 20 33 0 40 3 40 20 0 17 7 20 41 20 32 0 42 4 46 19 3 13 17
22 44 26 29 5 39 11 39 26 0 16 7 19 45 19 38 0 45 3 45 20 0 17 7 20 40 20
33 0 40 4 40 19 0 15 10 20 45 25 36 6 45 11 45 27 0 16 7 19 40 19 33 0 40 3
40 20 0 17 7 20 45 20 38 0 45 3 45 20 0 17 7 20 40 20 33 0 40 4 40 19 0 15
10 20 45 25 36 6 45 11 45 27 0 16 7 19 40 19 33 0 40 3 40 20 0 17 7 20 45
20 37 0 45 3 45 19 0 14 10 20 40 25 24 4 40 12 40 20 0 9 17 16 45 20 36 6
45 11 45 27 0 16 7 19 40 19 33 0 40 4 40 19 0 15 10 20 45 25 28 5 45 12 45
21 0 7 9 15 19 17 18 3 13 16 -44 128 -34 69 -101 193 -146 275 l-84 150
-1877 3 -1878 2 -2 1877 -3 1878 -120 68 c-172 98 -351 187 -375 187 -17 0
-20 -7 -20 -40 0 -33 -3 -40 -20 -40 -17 0 -20 -7 -20 -45 0 -38 -3 -45 -20
-45 -17 0 -20 -7 -20 -40 0 -33 -3 -40 -20 -40 -17 0 -20 -7 -20 -45 0 -41 -2
-45 -25 -45 -22 0 -25 -4 -25 -40 0 -33 -3 -40 -20 -40 -17 0 -20 -7 -20 -45
0 -38 -3 -45 -20 -45 -17 0 -20 -7 -20 -40 0 -33 -3 -40 -20 -40 -17 0 -20 -7
-20 -45 0 -41 -2 -45 -25 -45 -22 0 -25 -4 -25 -40 0 -33 -3 -40 -20 -40 -17
0 -20 -7 -20 -45 0 -38 -3 -45 -20 -45 -17 0 -20 -7 -20 -39 0 -33 -4 -40 -22
-43 -19 -2 -24 -10 -26 -45 -3 -35 -7 -43 -23 -43 -15 0 -19 -7 -19 -39 0 -30
-4 -40 -20 -44 -16 -4 -20 -14 -20 -46 0 -34 -3 -41 -20 -41 -17 0 -20 -7 -20
-45 0 -41 -2 -45 -25 -45 -22 0 -25 -4 -25 -40 0 -33 -3 -40 -20 -40 -17 0
-20 -7 -20 -45 0 -38 -3 -45 -20 -45 -17 0 -20 -7 -20 -40 0 -33 -3 -40 -20
-40 -17 0 -20 -7 -20 -45 0 -41 -2 -45 -25 -45 -22 0 -25 -4 -25 -40 0 -33 -3
-40 -20 -40 -17 0 -20 -7 -20 -45 0 -38 -3 -45 -20 -45 -17 0 -20 -7 -20 -40
0 -33 -3 -40 -20 -40 -17 0 -20 -7 -20 -45 0 -41 -2 -45 -25 -45 -22 0 -25 -4
-25 -40 0 -33 -3 -40 -20 -40 -17 0 -20 -7 -20 -45 0 -38 -3 -45 -20 -45 -17
0 -20 -7 -20 -39 0 -33 -4 -40 -22 -43 -19 -2 -24 -10 -26 -45 -3 -35 -7 -43
-23 -43 -15 0 -19 -7 -19 -39 0 -30 -4 -40 -20 -44 -16 -4 -20 -14 -20 -46 0
-34 -3 -41 -20 -41 -17 0 -20 -7 -20 -45 0 -41 -2 -45 -25 -45 -22 0 -25 -4
-25 -40 0 -33 -3 -40 -20 -40 -17 0 -20 -7 -20 -45 0 -38 -3 -45 -20 -45 -17
0 -20 -7 -20 -40 0 -33 -3 -40 -20 -40 -17 0 -20 -7 -20 -45 0 -41 -2 -45 -25
-45 -22 0 -25 -4 -25 -40 0 -33 -3 -40 -20 -40 -17 0 -20 -7 -20 -45 0 -38 -3
-45 -20 -45 -17 0 -20 -7 -20 -40 0 -33 -3 -40 -20 -40 -17 0 -20 -7 -20 -45
0 -41 -2 -45 -25 -45 -22 0 -25 -4 -25 -40 0 -33 -3 -40 -20 -40 -17 0 -20 -7
-20 -45 0 -38 -3 -45 -20 -45 -17 0 -20 -7 -20 -39 0 -33 -4 -40 -22 -43 -19
-2 -24 -10 -26 -45 -3 -35 -7 -43 -23 -43 -15 0 -19 -7 -19 -39 0 -30 -4 -40
-20 -44 -16 -4 -20 -14 -20 -46 0 -34 -3 -41 -20 -41 -17 0 -20 -7 -20 -45 0
-41 -2 -45 -25 -45 -22 0 -25 -4 -25 -40 0 -33 -3 -40 -20 -40 -17 0 -20 -7
-20 -45 l0 -45 -60 0 c-57 0 -60 1 -60 25 0 18 -5 25 -20 25 -13 0 -20 7 -20
20 0 13 -7 20 -20 20 -13 0 -20 7 -20 20 0 15 -7 20 -25 20 -18 0 -25 5 -25
20 0 13 -7 20 -20 20 -15 0 -20 7 -20 25 0 18 -5 25 -20 25 -13 0 -20 7 -20
20 0 13 -7 20 -20 20 -13 0 -20 7 -20 20 0 15 -7 20 -25 20 -20 0 -25 5 -25
25 0 18 -5 25 -20 25 -13 0 -20 7 -20 20 0 13 -7 20 -20 20 -13 0 -20 7 -20
20 0 15 -7 20 -25 20 -18 0 -25 5 -25 20 0 13 -7 20 -20 20 -15 0 -20 7 -20
25 0 18 -5 25 -20 25 -13 0 -20 7 -20 20 0 13 -7 20 -20 20 -13 0 -20 7 -20
20 0 15 -7 20 -25 20 -18 0 -25 5 -25 20 0 13 -7 20 -20 20 -15 0 -20 7 -20
25 0 18 -5 25 -20 25 -13 0 -20 7 -20 20 0 13 -7 20 -20 20 -13 0 -20 7 -20
20 0 15 -7 20 -25 20 -18 0 -25 5 -25 20 0 13 -7 20 -20 20 -15 0 -20 7 -20
25 0 18 -5 25 -20 25 -13 0 -20 7 -20 20 0 13 -7 20 -20 20 -13 0 -20 7 -20
20 0 15 -7 20 -25 20 -20 0 -25 5 -25 25 0 18 -5 25 -20 25 -13 0 -20 7 -20
20 0 13 -7 20 -20 20 -13 0 -20 7 -20 20 0 15 -7 20 -25 20 -18 0 -25 5 -25
20 0 13 -7 20 -20 20 -15 0 -20 7 -20 25 0 18 -5 25 -20 25 -13 0 -20 7 -20
20 0 13 -7 20 -20 20 -13 0 -20 7 -20 20 0 15 -7 20 -25 20 -18 0 -25 5 -25
20 0 13 -7 20 -20 20 -15 0 -20 7 -20 25 0 18 -5 25 -20 25 -13 0 -20 7 -20
20 0 13 -7 20 -20 20 -13 0 -20 7 -20 20 0 15 -7 20 -25 20 -18 0 -25 5 -25
20 0 13 -7 20 -20 20 -15 0 -20 7 -20 25 0 18 -5 25 -20 25 -13 0 -20 7 -20
20 0 13 -7 20 -20 20 -13 0 -20 7 -20 20 0 15 -7 20 -25 20 -20 0 -25 5 -25
25 0 18 -5 25 -20 25 -13 0 -20 7 -20 20 0 13 -7 20 -20 20 -13 0 -20 7 -20
20 0 15 -7 20 -25 20 -18 0 -25 5 -25 20 0 13 -7 20 -20 20 -15 0 -20 7 -20
25 0 18 -5 25 -20 25 -13 0 -20 7 -20 20 0 13 -7 20 -20 20 -13 0 -20 7 -20
20 0 15 -7 20 -25 20 -18 0 -25 5 -25 20 0 13 -7 20 -20 20 -15 0 -20 7 -20
25 0 18 -5 25 -20 25 -13 0 -20 7 -20 20 0 13 -7 20 -20 20 -13 0 -20 7 -20
20 0 15 -7 20 -25 20 -18 0 -25 5 -25 20 0 13 -7 20 -20 20 -15 0 -20 7 -20
25 0 18 -5 25 -20 25 -13 0 -20 7 -20 20 0 13 -7 20 -20 20 -13 0 -20 7 -20
20 0 15 -7 20 -25 20 -20 0 -25 5 -25 25 0 18 -5 25 -20 25 -13 0 -20 7 -20
20 0 13 -7 20 -20 20 -13 0 -20 7 -20 20 0 15 -7 20 -25 20 -18 0 -25 5 -25
20 0 13 -7 20 -20 20 -15 0 -20 7 -20 25 0 18 -5 25 -20 25 -13 0 -20 7 -20
20 0 13 -7 20 -20 20 -13 0 -20 7 -20 20 0 15 -7 20 -25 20 -18 0 -25 -5 -25
-20 0 -15 -7 -20 -25 -20 -18 0 -25 -5 -25 -20 0 -13 -7 -20 -20 -20 -15 0
-20 -7 -20 -25 0 -18 -5 -25 -20 -25 -13 0 -20 -7 -20 -20 0 -13 -7 -20 -20
-20 -13 0 -20 -7 -20 -20 0 -15 -7 -20 -25 -20 -18 0 -25 -5 -25 -19 0 -10 -9
-21 -20 -24 -12 -3 -20 -14 -20 -26 0 -14 -6 -21 -20 -21 -13 0 -20 -7 -20
-20 0 -14 -7 -20 -21 -20 -12 0 -23 -8 -26 -20 -3 -11 -14 -20 -24 -20 -14 0
-19 -7 -19 -25 0 -18 -5 -25 -20 -25 -13 0 -20 -7 -20 -20 0 -13 -7 -20 -20
-20 -13 0 -20 -7 -20 -20 0 -15 -7 -20 -25 -20 -18 0 -25 -5 -25 -20 0 -13 -7
-20 -20 -20 -15 0 -20 -7 -20 -25 0 -18 -5 -25 -20 -25 -13 0 -20 -7 -20 -20
0 -13 -7 -20 -20 -20 -13 0 -20 -7 -20 -20 0 -15 -7 -20 -25 -20 -18 0 -25 -5
-25 -20 0 -13 -7 -20 -20 -20 -15 0 -20 -7 -20 -25 0 -18 -5 -25 -20 -25 -13
0 -20 -7 -20 -20 0 -13 -7 -20 -20 -20 -13 0 -20 -7 -20 -20 0 -15 -7 -20 -25
-20 -18 0 -25 -5 -25 -19 0 -10 -9 -21 -20 -24 -12 -3 -20 -14 -20 -26 0 -14
-6 -21 -20 -21 -13 0 -20 -7 -20 -20 0 -14 -7 -20 -21 -20 -12 0 -23 -8 -26
-20 -3 -11 -14 -20 -24 -20 -14 0 -19 -7 -19 -25 0 -18 -5 -25 -20 -25 -13 0
-20 -7 -20 -20 0 -13 -7 -20 -20 -20 -13 0 -20 -7 -20 -20 0 -15 -7 -20 -25
-20 -18 0 -25 -5 -25 -20 0 -13 -7 -20 -20 -20 -15 0 -20 -7 -20 -25 0 -18 -5
-25 -20 -25 -13 0 -20 -7 -20 -20 0 -13 -7 -20 -20 -20 -13 0 -20 -7 -20 -20
0 -15 -7 -20 -25 -20 -18 0 -25 -5 -25 -20 0 -13 -7 -20 -20 -20 -15 0 -20 -7
-20 -25 0 -18 -5 -25 -20 -25 -13 0 -20 -7 -20 -20 0 -13 -7 -20 -20 -20 -13
0 -20 -7 -20 -20 0 -15 -7 -20 -25 -20 -18 0 -25 -5 -25 -19 0 -10 -9 -21 -20
-24 -12 -3 -20 -14 -20 -26 0 -14 -6 -21 -20 -21 -13 0 -20 -7 -20 -20 0 -14
-7 -20 -21 -20 -12 0 -23 -8 -26 -20 -3 -11 -14 -20 -24 -20 -14 0 -19 -7 -19
-25 0 -18 -5 -25 -20 -25 -13 0 -20 -7 -20 -20 0 -13 -7 -20 -20 -20 -13 0
-20 -7 -20 -20 0 -15 -7 -20 -25 -20 -18 0 -25 -5 -25 -20 0 -13 -7 -20 -20
-20 -15 0 -20 -7 -20 -25 0 -18 -5 -25 -20 -25 -13 0 -20 -7 -20 -20 0 -13 -7
-20 -20 -20 -13 0 -20 -7 -20 -20 0 -15 -7 -20 -25 -20 -18 0 -25 -5 -25 -20
0 -13 -7 -20 -20 -20 -15 0 -20 -7 -20 -25 0 -18 -5 -25 -20 -25 -13 0 -20 -7
-20 -20 0 -13 -7 -20 -20 -20 -13 0 -20 -7 -20 -20 0 -15 -7 -20 -25 -20 -18
0 -25 -5 -25 -19 0 -10 -9 -21 -20 -24 -12 -3 -20 -14 -20 -26 0 -14 -6 -21
-20 -21 -13 0 -20 -7 -20 -20 0 -14 -7 -20 -21 -20 -12 0 -23 -8 -26 -20 -3
-11 -14 -20 -24 -20 -14 0 -19 -7 -19 -25 0 -18 -5 -25 -20 -25 -13 0 -20 -7
-20 -20 0 -13 -7 -20 -20 -20 -13 0 -20 -7 -20 -20 0 -15 -7 -20 -25 -20 -18
0 -25 -5 -25 -20 0 -13 -7 -20 -20 -20 -15 0 -20 -7 -20 -25 0 -22 -4 -25 -40
-25 -36 0 -40 3 -40 25 0 18 -5 25 -20 25 -17 0 -20 7 -20 40 0 33 -3 40 -20
40 -17 0 -20 7 -20 41 0 32 -4 42 -19 46 -13 3 -22 17 -26 44 -5 29 -11 39
-26 39 -16 0 -19 7 -19 45 0 38 -3 45 -20 45 -17 0 -20 7 -20 40 0 33 -3 40
-20 40 -17 0 -20 7 -20 41 0 32 -4 42 -19 46 -13 3 -22 17 -26 44 -5 29 -11
39 -26 39 -16 0 -19 7 -19 45 0 38 -3 45 -20 45 -17 0 -20 7 -20 40 0 33 -3
40 -19 40 -16 0 -20 8 -23 43 -2 35 -7 43 -25 45 -19 3 -23 10 -23 43 0 32 -3
39 -20 39 -17 0 -20 7 -20 45 0 38 -3 45 -20 45 -17 0 -20 7 -20 40 0 33 -3
40 -19 40 -16 0 -20 8 -23 43 -2 35 -7 43 -25 45 -20 3 -23 9 -23 48 0 37 -3
44 -20 44 -17 0 -20 7 -20 40 0 33 -3 40 -20 40 -17 0 -20 7 -20 41 0 32 -4
42 -19 46 -13 3 -22 17 -26 44 -5 29 -11 39 -26 39 -16 0 -19 7 -19 45 0 38
-3 45 -20 45 -17 0 -20 7 -20 40 0 33 -3 40 -20 40 -17 0 -20 7 -20 41 0 32
-4 42 -19 46 -13 3 -22 17 -26 44 -5 29 -11 39 -26 39 -16 0 -19 7 -19 45 0
38 -3 45 -20 45 -17 0 -20 7 -20 40 0 33 -3 40 -19 40 -16 0 -20 8 -23 43 -2
35 -7 43 -25 45 -19 3 -23 10 -23 43 0 32 -3 39 -20 39 -17 0 -20 7 -20 45 0
38 -3 45 -20 45 -17 0 -20 7 -20 40 0 33 -3 40 -19 40 -16 0 -20 8 -23 43 -2
35 -7 43 -25 45 -20 3 -23 9 -23 48 0 37 -3 44 -20 44 -17 0 -20 7 -20 40 0
33 -3 40 -20 40 -17 0 -20 7 -20 41 0 32 -4 42 -19 46 -13 3 -22 17 -26 44 -5
29 -11 39 -26 39 -16 0 -19 7 -19 45 0 38 -3 45 -20 45 -17 0 -20 7 -20 40 0
33 -3 40 -20 40 -17 0 -20 7 -20 41 0 32 -4 42 -19 46 -13 3 -22 17 -26 44 -5
29 -11 39 -26 39 -16 0 -19 7 -19 45 0 38 -3 45 -20 45 -17 0 -20 7 -20 40 0
33 -3 40 -19 40 -16 0 -20 8 -23 43 -2 35 -7 43 -25 45 -19 3 -23 10 -23 43 0
32 -3 39 -20 39 -17 0 -20 7 -20 45 0 38 -3 45 -20 45 -17 0 -20 7 -20 40 0
33 -3 40 -19 40 -16 0 -20 8 -23 43 -2 35 -7 43 -25 45 -20 3 -23 9 -23 48 0
37 -3 44 -20 44 -17 0 -20 7 -20 40 0 33 -3 40 -19 40 -16 0 -20 8 -23 40 l-3
40 -145 -74z m-280 -4081 c0 -8 -9 -15 -20 -15 -11 0 -20 7 -20 15 0 8 9 15
20 15 11 0 20 -7 20 -15z m4940 -5 c0 -11 -7 -20 -15 -20 -8 0 -15 9 -15 20 0
11 7 20 15 20 8 0 15 -9 15 -20z m180 5 c0 -8 -9 -15 -20 -15 -11 0 -20 7 -20
15 0 8 9 15 20 15 11 0 20 -7 20 -15z m4940 -5 c0 -11 -7 -20 -15 -20 -8 0
-15 9 -15 20 0 11 7 20 15 20 8 0 15 -9 15 -20z m-9980 -39 c0 -16 8 -20 43
-23 35 -2 43 -7 45 -25 3 -19 10 -23 43 -23 32 0 39 -3 39 -20 0 -17 7 -20 45
-20 38 0 45 -3 45 -20 0 -17 7 -20 40 -20 33 0 40 -4 40 -19 0 -15 10 -20 45
-25 36 -6 45 -11 45 -27 0 -16 7 -19 40 -19 33 0 40 -3 40 -20 0 -17 7 -20 45
-20 38 0 45 -3 45 -20 0 -17 7 -20 40 -20 33 0 40 -3 40 -19 0 -16 9 -21 45
-27 35 -5 45 -10 45 -25 0 -15 7 -19 40 -19 33 0 40 -3 40 -20 0 -17 7 -20 45
-20 38 0 45 -3 45 -20 0 -17 7 -20 39 -20 33 0 40 -4 43 -22 2 -19 10 -24 46
-26 34 -3 42 -7 42 -23 0 -16 7 -19 45 -19 38 0 45 -3 45 -20 0 -17 7 -20 40
-20 33 0 40 -3 40 -19 0 -16 8 -20 43 -23 35 -2 43 -7 45 -25 3 -19 10 -23 43
-23 32 0 39 -3 39 -20 0 -17 7 -20 45 -20 38 0 45 -3 45 -20 0 -17 7 -20 40
-20 33 0 40 -4 40 -19 0 -15 10 -20 45 -25 36 -6 45 -11 45 -27 0 -16 7 -19
40 -19 33 0 40 -3 40 -20 0 -17 7 -20 45 -20 38 0 45 -3 45 -20 0 -17 7 -20
40 -20 33 0 40 -3 40 -19 0 -16 9 -21 45 -27 35 -5 45 -10 45 -25 0 -15 7 -19
40 -19 33 0 40 -3 40 -20 0 -17 7 -20 45 -20 38 0 45 -3 45 -20 0 -17 7 -20
40 -20 l40 0 0 -40 c0 -33 -3 -40 -20 -40 -13 0 -20 -7 -20 -20 0 -13 -7 -20
-20 -20 -15 0 -20 -7 -20 -25 0 -18 -5 -25 -20 -25 -13 0 -20 -7 -20 -20 0
-15 -7 -20 -25 -20 -18 0 -25 -5 -25 -20 0 -13 -7 -20 -20 -20 -13 0 -20 -7
-20 -20 0 -13 -7 -20 -20 -20 -15 0 -20 -7 -20 -25 0 -20 -5 -25 -25 -25 -18
0 -25 -5 -25 -20 0 -13 -7 -20 -20 -20 -13 0 -20 -7 -20 -20 0 -13 -7 -20 -20
-20 -15 0 -20 -7 -20 -25 0 -18 -5 -25 -20 -25 -13 0 -20 -7 -20 -20 0 -15 -7
-20 -25 -20 -18 0 -25 -5 -25 -20 0 -13 -7 -20 -20 -20 -13 0 -20 -7 -20 -20
0 -13 -7 -20 -20 -20 -15 0 -20 -7 -20 -25 0 -18 -5 -25 -20 -25 -13 0 -20 -7
-20 -20 0 -15 -7 -20 -25 -20 -18 0 -25 -5 -25 -20 0 -13 -7 -20 -20 -20 -13
0 -20 -7 -20 -20 0 -13 -7 -20 -20 -20 -15 0 -20 -7 -20 -25 0 -18 -5 -25 -20
-25 -13 0 -20 -7 -20 -20 0 -15 -7 -20 -25 -20 -18 0 -25 -5 -25 -20 0 -13 -7
-20 -20 -20 -13 0 -20 -7 -20 -20 0 -13 -7 -20 -20 -20 -15 0 -20 -7 -20 -25
0 -20 -5 -25 -25 -25 -18 0 -25 -5 -25 -20 0 -13 -7 -20 -20 -20 -13 0 -20 -7
-20 -20 0 -13 -7 -20 -20 -20 -15 0 -20 -7 -20 -25 0 -18 -5 -25 -20 -25 -13
0 -20 -7 -20 -20 0 -15 -7 -20 -25 -20 -18 0 -25 -5 -25 -20 0 -13 -7 -20 -20
-20 -13 0 -20 -7 -20 -20 0 -17 -7 -20 -40 -20 l-40 0 0 40 c0 33 -3 40 -20
40 -17 0 -20 7 -20 45 0 38 -3 45 -20 45 -17 0 -20 7 -20 40 0 33 -3 40 -19
40 -16 0 -20 8 -23 43 -2 35 -7 43 -25 45 -19 3 -23 10 -23 43 0 32 -3 39 -20
39 -17 0 -20 7 -20 45 0 38 -3 45 -20 45 -17 0 -20 7 -20 40 0 33 -3 40 -19
40 -16 0 -20 8 -23 43 -2 35 -7 43 -25 45 -19 3 -23 10 -23 43 0 32 -3 39 -20
39 -17 0 -20 7 -20 45 0 38 -3 45 -19 45 -16 0 -20 8 -23 43 -2 35 -7 43 -25
45 -19 3 -23 10 -23 43 0 32 -3 39 -20 39 -17 0 -20 7 -20 45 0 38 -3 45 -20
45 -17 0 -20 7 -20 40 0 33 -3 40 -19 40 -16 0 -20 8 -23 43 -2 35 -7 43 -25
45 -19 3 -23 10 -23 43 0 32 -3 39 -20 39 -17 0 -20 7 -20 45 0 38 -3 45 -20
45 -17 0 -20 7 -20 40 0 33 -3 40 -19 40 -16 0 -20 8 -23 43 -2 35 -7 43 -25
45 -19 3 -23 10 -23 43 0 32 -3 39 -20 39 -17 0 -20 7 -20 45 0 38 -3 45 -20
45 -17 0 -20 7 -20 40 0 33 -3 40 -19 40 -16 0 -20 8 -23 43 -2 35 -7 43 -25
45 -19 3 -23 10 -23 43 0 32 -3 39 -20 39 -17 0 -20 7 -20 45 0 38 -3 45 -19
45 -16 0 -20 8 -23 43 -2 35 -7 43 -25 45 -19 3 -23 10 -23 43 0 32 -3 39 -20
39 -17 0 -20 7 -20 40 l0 40 40 0 c33 0 40 -3 40 -19z m4820 -21 c0 -33 -3
-40 -20 -40 -17 0 -20 -7 -20 -45 0 -38 -3 -45 -20 -45 -17 0 -20 -7 -20 -39
0 -33 -4 -40 -22 -43 -19 -2 -24 -10 -26 -45 -3 -35 -7 -43 -23 -43 -16 0 -19
-7 -19 -40 0 -33 -3 -40 -20 -40 -17 0 -20 -7 -20 -45 0 -38 -3 -45 -19 -45
-15 0 -21 -10 -26 -39 -4 -27 -13 -41 -26 -44 -15 -4 -19 -14 -19 -46 0 -34
-3 -41 -20 -41 -17 0 -20 -7 -20 -40 0 -33 -3 -40 -20 -40 -17 0 -20 -7 -20
-45 0 -38 -3 -45 -19 -45 -15 0 -21 -10 -26 -39 -4 -27 -13 -41 -26 -44 -15
-4 -19 -14 -19 -46 0 -34 -3 -41 -20 -41 -17 0 -20 -7 -20 -40 0 -33 -3 -40
-20 -40 -17 0 -20 -7 -20 -44 0 -39 -3 -45 -22 -48 -19 -2 -24 -10 -26 -45 -3
-35 -7 -43 -23 -43 -16 0 -19 -7 -19 -40 0 -33 -3 -40 -20 -40 -17 0 -20 -7
-20 -45 0 -38 -3 -45 -20 -45 -17 0 -20 -7 -20 -39 0 -33 -4 -40 -22 -43 -19
-2 -24 -10 -26 -45 -3 -35 -7 -43 -23 -43 -16 0 -19 -7 -19 -40 0 -33 -3 -40
-20 -40 -17 0 -20 -7 -20 -45 0 -38 -3 -45 -19 -45 -15 0 -21 -10 -26 -39 -4
-27 -13 -41 -26 -44 -15 -4 -19 -14 -19 -46 0 -34 -3 -41 -20 -41 -17 0 -20
-7 -20 -40 0 -33 -3 -40 -20 -40 -17 0 -20 -7 -20 -45 0 -38 -3 -45 -19 -45
-15 0 -21 -10 -26 -39 -4 -27 -13 -41 -26 -44 -15 -4 -19 -14 -19 -46 0 -34
-3 -41 -20 -41 -17 0 -20 -7 -20 -40 l0 -40 -40 0 c-33 0 -40 3 -40 20 0 13
-7 20 -20 20 -13 0 -20 7 -20 20 0 13 -7 20 -20 20 -13 0 -20 7 -20 20 0 15
-7 20 -25 20 -20 0 -25 5 -25 25 0 18 -5 25 -20 25 -13 0 -20 7 -20 20 0 13
-7 20 -20 20 -13 0 -20 7 -20 20 0 13 -7 20 -19 20 -13 0 -21 8 -23 23 -2 14
-11 23 -25 25 -15 2 -23 10 -23 23 0 12 -7 19 -20 19 -13 0 -20 7 -20 20 0 13
-7 20 -20 20 -13 0 -20 7 -20 20 0 15 -7 20 -25 20 -20 0 -25 5 -25 25 0 18
-5 25 -20 25 -13 0 -20 7 -20 20 0 13 -7 20 -20 20 -13 0 -20 7 -20 20 0 13
-7 20 -20 20 -13 0 -20 7 -20 20 0 15 -7 20 -25 20 -20 0 -25 5 -25 25 0 18
-5 25 -20 25 -13 0 -20 7 -20 20 0 13 -7 20 -20 20 -13 0 -20 7 -20 20 0 13
-7 20 -20 20 -13 0 -20 7 -20 20 0 15 -7 20 -25 20 -20 0 -25 5 -25 25 0 18
-5 25 -20 25 -13 0 -20 7 -20 20 0 13 -7 20 -20 20 -13 0 -20 7 -20 20 0 13
-7 20 -19 20 -13 0 -21 8 -23 23 -2 14 -11 23 -25 25 -15 2 -23 10 -23 23 0
12 -7 19 -20 19 -13 0 -20 7 -20 20 0 13 -7 20 -20 20 -13 0 -20 7 -20 20 0
15 -7 20 -25 20 -20 0 -25 5 -25 25 0 18 -5 25 -20 25 -13 0 -20 7 -20 20 0
13 -7 20 -20 20 -17 0 -20 7 -20 40 l0 40 40 0 c33 0 40 3 40 20 0 17 7 20 45
20 38 0 45 3 45 20 0 17 7 20 40 20 33 0 40 4 40 19 0 15 10 20 45 25 36 6 45
11 45 27 0 16 7 19 40 19 33 0 40 3 40 20 0 17 7 20 45 20 38 0 45 3 45 20 0
17 7 20 41 20 33 0 42 4 46 20 4 14 17 22 44 26 29 5 39 11 39 25 0 16 8 19
45 19 38 0 45 3 45 20 0 17 7 20 40 20 33 0 40 3 40 19 0 16 8 20 43 23 35 2
43 7 45 26 3 18 10 22 43 22 32 0 39 3 39 20 0 17 7 20 45 20 38 0 45 3 45 20
0 17 7 20 40 20 33 0 40 3 40 19 0 16 8 20 43 23 35 2 43 7 45 26 3 18 10 22
43 22 32 0 39 3 39 20 0 17 7 20 45 20 38 0 45 3 45 20 0 17 7 20 40 20 33 0
40 4 40 19 0 15 10 20 45 25 36 6 45 11 45 27 0 16 7 19 40 19 33 0 40 3 40
20 0 17 7 20 45 20 38 0 45 3 45 20 0 17 7 20 41 20 33 0 42 4 46 20 4 14 17
22 44 26 29 5 39 11 39 25 0 16 8 19 45 19 38 0 45 3 45 20 0 17 7 20 40 20
33 0 40 3 40 19 0 16 8 20 43 23 35 2 43 7 45 26 3 18 10 22 43 22 32 0 39 3
39 20 0 17 7 20 40 20 l40 0 0 -40z m300 21 c0 -16 8 -20 43 -23 35 -2 43 -7
45 -25 3 -19 10 -23 43 -23 32 0 39 -3 39 -20 0 -17 7 -20 45 -20 38 0 45 -3
45 -20 0 -17 7 -20 40 -20 33 0 40 -4 40 -19 0 -15 10 -20 45 -25 36 -6 45
-11 45 -27 0 -16 7 -19 40 -19 33 0 40 -3 40 -20 0 -17 7 -20 45 -20 38 0 45
-3 45 -20 0 -17 7 -20 40 -20 33 0 40 -3 40 -19 0 -16 9 -21 45 -27 35 -5 45
-10 45 -25 0 -15 7 -19 40 -19 33 0 40 -3 40 -20 0 -17 7 -20 45 -20 38 0 45
-3 45 -20 0 -17 7 -20 39 -20 33 0 40 -4 43 -22 2 -19 10 -24 46 -26 34 -3 42
-7 42 -23 0 -16 7 -19 45 -19 38 0 45 -3 45 -20 0 -17 7 -20 40 -20 33 0 40
-3 40 -19 0 -16 8 -20 43 -23 35 -2 43 -7 45 -25 3 -19 10 -23 43 -23 32 0 39
-3 39 -20 0 -17 7 -20 45 -20 38 0 45 -3 45 -20 0 -17 7 -20 40 -20 33 0 40
-4 40 -19 0 -15 10 -20 45 -25 36 -6 45 -11 45 -27 0 -16 7 -19 40 -19 33 0
40 -3 40 -20 0 -17 7 -20 45 -20 38 0 45 -3 45 -20 0 -17 7 -20 40 -20 33 0
40 -3 40 -19 0 -16 9 -21 45 -27 35 -5 45 -10 45 -25 0 -15 7 -19 40 -19 33 0
40 -3 40 -20 0 -17 7 -20 45 -20 38 0 45 -3 45 -20 0 -17 7 -20 40 -20 l40 0
0 -40 c0 -33 -3 -40 -20 -40 -13 0 -20 -7 -20 -20 0 -13 -7 -20 -20 -20 -15 0
-20 -7 -20 -25 0 -18 -5 -25 -20 -25 -13 0 -20 -7 -20 -20 0 -15 -7 -20 -25
-20 -18 0 -25 -5 -25 -20 0 -13 -7 -20 -20 -20 -13 0 -20 -7 -20 -20 0 -13 -7
-20 -20 -20 -15 0 -20 -7 -20 -25 0 -20 -5 -25 -25 -25 -18 0 -25 -5 -25 -20
0 -13 -7 -20 -20 -20 -13 0 -20 -7 -20 -20 0 -13 -7 -20 -20 -20 -15 0 -20 -7
-20 -25 0 -18 -5 -25 -20 -25 -13 0 -20 -7 -20 -20 0 -15 -7 -20 -25 -20 -18
0 -25 -5 -25 -20 0 -13 -7 -20 -20 -20 -13 0 -20 -7 -20 -20 0 -13 -7 -20 -20
-20 -15 0 -20 -7 -20 -25 0 -18 -5 -25 -20 -25 -13 0 -20 -7 -20 -20 0 -15 -7
-20 -25 -20 -18 0 -25 -5 -25 -20 0 -13 -7 -20 -20 -20 -13 0 -20 -7 -20 -20
0 -13 -7 -20 -20 -20 -15 0 -20 -7 -20 -25 0 -18 -5 -25 -20 -25 -13 0 -20 -7
-20 -20 0 -15 -7 -20 -25 -20 -18 0 -25 -5 -25 -20 0 -13 -7 -20 -20 -20 -13
0 -20 -7 -20 -20 0 -13 -7 -20 -20 -20 -15 0 -20 -7 -20 -25 0 -20 -5 -25 -25
-25 -18 0 -25 -5 -25 -20 0 -13 -7 -20 -20 -20 -13 0 -20 -7 -20 -20 0 -13 -7
-20 -20 -20 -15 0 -20 -7 -20 -25 0 -18 -5 -25 -20 -25 -13 0 -20 -7 -20 -20
0 -15 -7 -20 -25 -20 -18 0 -25 -5 -25 -20 0 -13 -7 -20 -20 -20 -13 0 -20 -7
-20 -20 0 -17 -7 -20 -40 -20 l-40 0 0 40 c0 33 -3 40 -20 40 -17 0 -20 7 -20
45 0 38 -3 45 -20 45 -17 0 -20 7 -20 40 0 33 -3 40 -19 40 -16 0 -20 8 -23
43 -2 35 -7 43 -25 45 -19 3 -23 10 -23 43 0 32 -3 39 -20 39 -17 0 -20 7 -20
45 0 38 -3 45 -20 45 -17 0 -20 7 -20 40 0 33 -3 40 -19 40 -16 0 -20 8 -23
43 -2 35 -7 43 -25 45 -19 3 -23 10 -23 43 0 32 -3 39 -20 39 -17 0 -20 7 -20
45 0 38 -3 45 -19 45 -16 0 -20 8 -23 43 -2 35 -7 43 -25 45 -19 3 -23 10 -23
43 0 32 -3 39 -20 39 -17 0 -20 7 -20 45 0 38 -3 45 -20 45 -17 0 -20 7 -20
40 0 33 -3 40 -19 40 -16 0 -20 8 -23 43 -2 35 -7 43 -25 45 -19 3 -23 10 -23
43 0 32 -3 39 -20 39 -17 0 -20 7 -20 45 0 38 -3 45 -20 45 -17 0 -20 7 -20
40 0 33 -3 40 -19 40 -16 0 -20 8 -23 43 -2 35 -7 43 -25 45 -19 3 -23 10 -23
43 0 32 -3 39 -20 39 -17 0 -20 7 -20 45 0 38 -3 45 -20 45 -17 0 -20 7 -20
40 0 33 -3 40 -19 40 -16 0 -20 8 -23 43 -2 35 -7 43 -25 45 -19 3 -23 10 -23
43 0 32 -3 39 -20 39 -17 0 -20 7 -20 45 0 38 -3 45 -19 45 -16 0 -20 8 -23
43 -2 35 -7 43 -25 45 -19 3 -23 10 -23 43 0 32 -3 39 -20 39 -17 0 -20 7 -20
40 l0 40 40 0 c33 0 40 -3 40 -19z m4820 -21 c0 -33 -3 -40 -20 -40 -17 0 -20
-7 -20 -45 0 -38 -3 -45 -20 -45 -17 0 -20 -7 -20 -39 0 -33 -4 -40 -22 -43
-19 -2 -24 -10 -26 -45 -3 -35 -7 -43 -23 -43 -16 0 -19 -7 -19 -40 0 -33 -3
-40 -20 -40 -17 0 -20 -7 -20 -45 0 -38 -3 -45 -19 -45 -15 0 -21 -10 -26 -39
-4 -27 -13 -41 -26 -44 -15 -4 -19 -14 -19 -46 0 -34 -3 -41 -20 -41 -17 0
-20 -7 -20 -40 0 -33 -3 -40 -20 -40 -17 0 -20 -7 -20 -45 0 -38 -3 -45 -19
-45 -15 0 -21 -10 -26 -39 -4 -27 -13 -41 -26 -44 -15 -4 -19 -14 -19 -46 0
-34 -3 -41 -20 -41 -17 0 -20 -7 -20 -40 0 -33 -3 -40 -20 -40 -17 0 -20 -7
-20 -44 0 -39 -3 -45 -22 -48 -19 -2 -24 -10 -26 -45 -3 -35 -7 -43 -23 -43
-16 0 -19 -7 -19 -40 0 -33 -3 -40 -20 -40 -17 0 -20 -7 -20 -45 0 -38 -3 -45
-20 -45 -17 0 -20 -7 -20 -39 0 -33 -4 -40 -22 -43 -19 -2 -24 -10 -26 -45 -3
-35 -7 -43 -23 -43 -16 0 -19 -7 -19 -40 0 -33 -3 -40 -20 -40 -17 0 -20 -7
-20 -45 0 -38 -3 -45 -19 -45 -15 0 -21 -10 -26 -39 -4 -27 -13 -41 -26 -44
-15 -4 -19 -14 -19 -46 0 -34 -3 -41 -20 -41 -17 0 -20 -7 -20 -40 0 -33 -3
-40 -20 -40 -17 0 -20 -7 -20 -45 0 -38 -3 -45 -19 -45 -15 0 -21 -10 -26 -39
-4 -27 -13 -41 -26 -44 -15 -4 -19 -14 -19 -46 0 -34 -3 -41 -20 -41 -17 0
-20 -7 -20 -40 l0 -40 -40 0 c-33 0 -40 3 -40 20 0 13 -7 20 -20 20 -13 0 -20
7 -20 20 0 13 -7 20 -20 20 -13 0 -20 7 -20 20 0 15 -7 20 -25 20 -20 0 -25 5
-25 25 0 18 -5 25 -20 25 -13 0 -20 7 -20 20 0 13 -7 20 -20 20 -13 0 -20 7
-20 20 0 13 -7 20 -19 20 -13 0 -21 8 -23 23 -2 14 -11 23 -25 25 -15 2 -23
10 -23 23 0 12 -7 19 -20 19 -13 0 -20 7 -20 20 0 13 -7 20 -20 20 -13 0 -20
7 -20 20 0 15 -7 20 -25 20 -20 0 -25 5 -25 25 0 18 -5 25 -20 25 -13 0 -20 7
-20 20 0 13 -7 20 -20 20 -13 0 -20 7 -20 20 0 13 -7 20 -20 20 -13 0 -20 7
-20 20 0 15 -7 20 -25 20 -20 0 -25 5 -25 25 0 18 -5 25 -20 25 -13 0 -20 7
-20 20 0 13 -7 20 -20 20 -13 0 -20 7 -20 20 0 13 -7 20 -20 20 -13 0 -20 7
-20 20 0 15 -7 20 -25 20 -20 0 -25 5 -25 25 0 18 -5 25 -20 25 -13 0 -20 7
-20 20 0 13 -7 20 -20 20 -13 0 -20 7 -20 20 0 13 -7 20 -19 20 -13 0 -21 8
-23 23 -2 14 -11 23 -25 25 -15 2 -23 10 -23 23 0 12 -7 19 -20 19 -13 0 -20
7 -20 20 0 13 -7 20 -20 20 -13 0 -20 7 -20 20 0 15 -7 20 -25 20 -20 0 -25 5
-25 25 0 18 -5 25 -20 25 -13 0 -20 7 -20 20 0 13 -7 20 -20 20 -17 0 -20 7
-20 40 l0 40 40 0 c33 0 40 3 40 20 0 17 7 20 45 20 38 0 45 3 45 20 0 17 7
20 40 20 33 0 40 4 40 19 0 15 10 20 45 25 36 6 45 11 45 27 0 16 7 19 40 19
33 0 40 3 40 20 0 17 7 20 45 20 38 0 45 3 45 20 0 17 7 20 41 20 33 0 42 4
46 20 4 14 17 22 44 26 29 5 39 11 39 25 0 16 8 19 45 19 38 0 45 3 45 20 0
17 7 20 40 20 33 0 40 3 40 19 0 16 8 20 43 23 35 2 43 7 45 26 3 18 10 22 43
22 32 0 39 3 39 20 0 17 7 20 45 20 38 0 45 3 45 20 0 17 7 20 40 20 33 0 40
3 40 19 0 16 8 20 43 23 35 2 43 7 45 26 3 18 10 22 43 22 32 0 39 3 39 20 0
17 7 20 45 20 38 0 45 3 45 20 0 17 7 20 40 20 33 0 40 4 40 19 0 15 10 20 45
25 36 6 45 11 45 27 0 16 7 19 40 19 33 0 40 3 40 20 0 17 7 20 45 20 38 0 45
3 45 20 0 17 7 20 41 20 33 0 42 4 46 20 4 14 17 22 44 26 29 5 39 11 39 25 0
16 8 19 45 19 38 0 45 3 45 20 0 17 7 20 40 20 33 0 40 3 40 19 0 16 8 20 43
23 35 2 43 7 45 26 3 18 10 22 43 22 32 0 39 3 39 20 0 17 7 20 40 20 l40 0 0
-40z m-8790 -2500 c0 -13 7 -20 20 -20 13 0 20 -7 20 -20 0 -15 7 -20 25 -20
20 0 25 -5 25 -25 0 -18 5 -25 20 -25 13 0 20 -7 20 -20 0 -13 7 -20 20 -20
13 0 20 -7 20 -20 0 -13 7 -20 19 -20 13 0 21 -8 23 -22 2 -15 11 -24 26 -26
14 -2 22 -10 22 -23 0 -12 7 -19 20 -19 13 0 20 -7 20 -20 0 -13 7 -20 20 -20
13 0 20 -7 20 -20 0 -15 7 -20 25 -20 20 0 25 -5 25 -25 0 -18 5 -25 20 -25
13 0 20 -7 20 -20 0 -13 7 -20 20 -20 13 0 20 -7 20 -20 0 -13 7 -20 20 -20
13 0 20 -7 20 -20 0 -15 7 -20 25 -20 20 0 25 -5 25 -25 0 -18 5 -25 20 -25
13 0 20 -7 20 -20 0 -13 7 -20 20 -20 13 0 20 -7 20 -20 0 -13 7 -20 20 -20
13 0 20 -7 20 -20 0 -15 7 -20 25 -20 20 0 25 -5 25 -25 0 -18 5 -25 20 -25
13 0 20 -7 20 -20 0 -13 7 -20 20 -20 13 0 20 -7 20 -20 0 -13 7 -20 19 -20
13 0 21 -8 23 -22 2 -15 11 -24 26 -26 14 -2 22 -10 22 -23 0 -12 7 -19 20
-19 13 0 20 -7 20 -20 0 -13 7 -20 20 -20 13 0 20 -7 20 -20 0 -15 7 -20 25
-20 20 0 25 -5 25 -25 0 -18 5 -25 20 -25 13 0 20 -7 20 -20 0 -13 7 -20 20
-20 13 0 20 -7 20 -20 0 -13 7 -20 20 -20 17 0 20 -7 20 -40 l0 -40 -40 0
c-33 0 -40 -3 -40 -20 0 -17 -7 -20 -41 -20 -32 0 -42 -4 -46 -19 -3 -13 -17
-22 -44 -26 -29 -5 -39 -11 -39 -26 0 -16 -7 -19 -45 -19 -38 0 -45 -3 -45
-20 0 -17 -7 -20 -40 -20 -33 0 -40 -3 -40 -20 0 -17 -7 -20 -41 -20 -32 0
-42 -4 -46 -19 -3 -13 -17 -22 -44 -26 -29 -5 -39 -11 -39 -26 0 -16 -7 -19
-45 -19 -38 0 -45 -3 -45 -20 0 -17 -7 -20 -40 -20 -33 0 -40 -3 -40 -19 0
-16 -8 -20 -42 -23 -36 -2 -44 -7 -46 -25 -3 -19 -10 -23 -43 -23 -32 0 -39
-3 -39 -20 0 -17 -7 -20 -45 -20 -38 0 -45 -3 -45 -20 0 -17 -7 -20 -40 -20
-33 0 -40 -3 -40 -19 0 -16 -8 -20 -42 -23 -36 -2 -44 -7 -46 -25 -3 -20 -9
-23 -48 -23 -37 0 -44 -3 -44 -20 0 -17 -7 -20 -40 -20 -33 0 -40 -3 -40 -20
0 -17 -7 -20 -41 -20 -32 0 -42 -4 -46 -19 -3 -13 -17 -22 -44 -26 -29 -5 -39
-11 -39 -26 0 -16 -7 -19 -45 -19 -38 0 -45 -3 -45 -20 0 -17 -7 -20 -40 -20
-33 0 -40 -3 -40 -20 0 -17 -7 -20 -41 -20 -32 0 -42 -4 -46 -19 -3 -13 -17
-22 -44 -26 -29 -5 -39 -11 -39 -26 0 -16 -7 -19 -45 -19 -38 0 -45 -3 -45
-20 0 -17 -7 -20 -40 -20 -33 0 -40 -3 -40 -19 0 -16 -8 -20 -42 -23 -36 -2
-44 -7 -46 -25 -3 -19 -10 -23 -43 -23 -32 0 -39 -3 -39 -20 0 -17 -7 -20 -45
-20 -38 0 -45 -3 -45 -20 0 -17 -7 -20 -40 -20 l-40 0 0 40 c0 33 3 40 20 40
17 0 20 7 20 40 0 36 3 40 25 40 23 0 25 4 25 45 0 38 3 45 20 45 17 0 20 7
20 40 0 33 3 40 20 40 17 0 20 7 20 45 0 41 2 45 25 45 23 0 25 4 25 40 0 33
3 40 20 40 17 0 20 7 20 45 0 38 3 45 20 45 17 0 20 7 20 40 0 33 3 40 20 40
17 0 20 7 20 45 0 41 2 45 25 45 22 0 25 4 25 39 0 30 4 40 20 44 16 4 20 14
20 46 0 34 3 41 20 41 17 0 20 7 20 45 0 38 3 45 20 45 17 0 20 7 20 40 0 36
3 40 25 40 23 0 25 4 25 45 0 38 3 45 20 45 17 0 20 7 20 40 0 33 3 40 20 40
17 0 20 7 20 45 0 38 3 45 20 45 17 0 20 7 20 40 0 36 3 40 25 40 23 0 25 4
25 45 0 38 3 45 20 45 17 0 20 7 20 40 0 33 3 40 20 40 17 0 20 7 20 45 0 41
2 45 25 45 23 0 25 4 25 40 0 33 3 40 20 40 17 0 20 7 20 45 0 38 3 45 20 45
17 0 20 7 20 40 0 33 3 40 20 40 17 0 20 7 20 45 0 41 2 45 25 45 22 0 25 4
25 39 0 30 4 40 20 44 16 4 20 14 20 46 0 34 3 41 20 41 17 0 20 7 20 45 0 38
3 45 20 45 17 0 20 7 20 40 l0 40 40 0 c33 0 40 -3 40 -20z m2520 -20 c0 -33
3 -40 20 -40 17 0 20 -7 20 -45 0 -38 3 -45 19 -45 15 0 21 -10 26 -40 5 -30
11 -40 26 -40 16 0 19 -7 19 -45 0 -38 3 -45 20 -45 17 0 20 -7 20 -40 0 -33
3 -40 20 -40 17 0 20 -7 20 -45 0 -38 3 -45 19 -45 16 0 21 -9 27 -45 5 -35
10 -45 25 -45 15 0 19 -7 19 -40 0 -33 3 -40 20 -40 17 0 20 -7 20 -41 0 -32
4 -42 20 -46 16 -4 20 -14 20 -44 0 -35 3 -39 25 -39 23 0 25 -4 25 -45 0 -38
3 -45 20 -45 17 0 20 -7 20 -40 0 -33 3 -40 20 -40 17 0 20 -7 20 -45 0 -38 3
-45 20 -45 17 0 20 -7 20 -40 0 -36 3 -40 25 -40 23 0 25 -4 25 -45 0 -38 3
-45 20 -45 17 0 20 -7 20 -40 0 -33 3 -40 20 -40 17 0 20 -7 20 -45 0 -38 3
-45 19 -45 15 0 21 -10 26 -40 5 -30 11 -40 26 -40 16 0 19 -7 19 -45 0 -38 3
-45 20 -45 17 0 20 -7 20 -40 0 -33 3 -40 20 -40 17 0 20 -7 20 -45 0 -38 3
-45 19 -45 16 0 21 -9 27 -45 5 -35 10 -45 25 -45 15 0 19 -7 19 -40 0 -33 3
-40 20 -40 17 0 20 -7 20 -41 0 -32 4 -42 20 -46 16 -4 20 -14 20 -44 0 -35 3
-39 25 -39 23 0 25 -4 25 -45 0 -38 3 -45 20 -45 17 0 20 -7 20 -40 0 -33 3
-40 20 -40 17 0 20 -7 20 -40 l0 -40 -40 0 c-33 0 -40 3 -40 20 0 17 -7 20
-40 20 -33 0 -40 3 -40 20 0 17 -7 20 -45 20 -41 0 -45 2 -45 25 0 22 -4 25
-39 25 -30 0 -40 4 -44 20 -4 16 -14 20 -46 20 -34 0 -41 3 -41 20 0 17 -7 20
-40 20 -33 0 -40 4 -40 19 0 15 -10 20 -45 25 -36 6 -45 11 -45 27 0 16 -7 19
-45 19 -38 0 -45 3 -45 20 0 17 -7 20 -40 20 -33 0 -40 3 -40 20 0 17 -7 20
-45 20 -38 0 -45 3 -45 19 0 15 -10 21 -40 26 -30 5 -40 11 -40 26 0 16 -7 19
-45 19 -38 0 -45 3 -45 20 0 17 -7 20 -40 20 -33 0 -40 3 -40 20 0 17 -7 20
-45 20 -41 0 -45 2 -45 25 0 23 -4 25 -40 25 -33 0 -40 3 -40 20 0 17 -7 20
-45 20 -38 0 -45 3 -45 20 0 17 -7 20 -40 20 -33 0 -40 3 -40 20 0 17 -7 20
-45 20 -41 0 -45 2 -45 25 0 22 -4 25 -39 25 -30 0 -40 4 -44 20 -4 16 -14 20
-46 20 -34 0 -41 3 -41 20 0 17 -7 20 -40 20 -33 0 -40 4 -40 19 0 15 -10 20
-45 25 -36 6 -45 11 -45 27 0 16 -7 19 -45 19 -38 0 -45 3 -45 20 0 17 -7 20
-40 20 -33 0 -40 3 -40 20 0 17 -7 20 -45 20 -38 0 -45 3 -45 19 0 15 -10 21
-40 26 -30 5 -40 11 -40 26 0 16 -7 19 -45 19 -38 0 -45 3 -45 20 0 17 -7 20
-40 20 l-40 0 0 40 c0 33 3 40 20 40 13 0 20 7 20 20 0 13 7 20 20 20 13 0 20
7 20 19 0 13 8 21 23 23 14 2 23 11 25 26 2 14 10 22 23 22 12 0 19 7 19 20 0
13 7 20 20 20 13 0 20 7 20 20 0 14 7 20 21 20 12 0 23 8 26 19 3 11 13 21 24
24 11 3 19 14 19 26 0 14 6 21 20 21 13 0 20 7 20 20 0 13 7 20 20 20 13 0 20
7 20 19 0 13 8 21 23 23 14 2 23 11 25 26 2 14 10 22 23 22 12 0 19 7 19 20 0
13 7 20 20 20 13 0 20 7 20 20 0 13 7 20 20 20 13 0 20 7 20 19 0 13 8 21 23
23 14 2 23 11 25 26 2 14 10 22 23 22 12 0 19 7 19 20 0 13 7 20 20 20 13 0
20 7 20 20 0 13 7 20 20 20 13 0 20 7 20 19 0 13 8 21 23 23 14 2 23 11 25 26
2 14 10 22 23 22 12 0 19 7 19 20 0 13 7 20 20 20 13 0 20 7 20 20 0 14 7 20
21 20 12 0 23 8 26 19 3 11 13 21 24 24 11 3 19 14 19 26 0 14 6 21 20 21 13
0 20 7 20 20 0 13 7 20 20 20 13 0 20 7 20 19 0 13 8 21 23 23 14 2 23 11 25
26 2 14 10 22 23 22 12 0 19 7 19 20 0 13 7 20 20 20 13 0 20 7 20 20 0 17 7
20 40 20 l40 0 0 -40z m2600 20 c0 -13 7 -20 20 -20 13 0 20 -7 20 -20 0 -15
7 -20 25 -20 20 0 25 -5 25 -25 0 -18 5 -25 20 -25 13 0 20 -7 20 -20 0 -13 7
-20 20 -20 13 0 20 -7 20 -20 0 -13 7 -20 19 -20 13 0 21 -8 23 -22 2 -15 11
-24 26 -26 14 -2 22 -10 22 -23 0 -12 7 -19 20 -19 13 0 20 -7 20 -20 0 -13 7
-20 20 -20 13 0 20 -7 20 -20 0 -15 7 -20 25 -20 20 0 25 -5 25 -25 0 -18 5
-25 20 -25 13 0 20 -7 20 -20 0 -13 7 -20 20 -20 13 0 20 -7 20 -20 0 -13 7
-20 20 -20 13 0 20 -7 20 -20 0 -15 7 -20 25 -20 20 0 25 -5 25 -25 0 -18 5
-25 20 -25 13 0 20 -7 20 -20 0 -13 7 -20 20 -20 13 0 20 -7 20 -20 0 -13 7
-20 20 -20 13 0 20 -7 20 -20 0 -15 7 -20 25 -20 20 0 25 -5 25 -25 0 -18 5
-25 20 -25 13 0 20 -7 20 -20 0 -13 7 -20 20 -20 13 0 20 -7 20 -20 0 -13 7
-20 19 -20 13 0 21 -8 23 -22 2 -15 11 -24 26 -26 14 -2 22 -10 22 -23 0 -12
7 -19 20 -19 13 0 20 -7 20 -20 0 -13 7 -20 20 -20 13 0 20 -7 20 -20 0 -15 7
-20 25 -20 20 0 25 -5 25 -25 0 -18 5 -25 20 -25 13 0 20 -7 20 -20 0 -13 7
-20 20 -20 13 0 20 -7 20 -20 0 -13 7 -20 20 -20 17 0 20 -7 20 -40 l0 -40
-40 0 c-33 0 -40 -3 -40 -20 0 -17 -7 -20 -41 -20 -32 0 -42 -4 -46 -19 -3
-13 -17 -22 -44 -26 -29 -5 -39 -11 -39 -26 0 -16 -7 -19 -45 -19 -38 0 -45
-3 -45 -20 0 -17 -7 -20 -40 -20 -33 0 -40 -3 -40 -20 0 -17 -7 -20 -41 -20
-32 0 -42 -4 -46 -19 -3 -13 -17 -22 -44 -26 -29 -5 -39 -11 -39 -26 0 -16 -7
-19 -45 -19 -38 0 -45 -3 -45 -20 0 -17 -7 -20 -40 -20 -33 0 -40 -3 -40 -19
0 -16 -8 -20 -42 -23 -36 -2 -44 -7 -46 -25 -3 -19 -10 -23 -43 -23 -32 0 -39
-3 -39 -20 0 -17 -7 -20 -45 -20 -38 0 -45 -3 -45 -20 0 -17 -7 -20 -40 -20
-33 0 -40 -3 -40 -19 0 -16 -8 -20 -42 -23 -36 -2 -44 -7 -46 -25 -3 -20 -9
-23 -48 -23 -37 0 -44 -3 -44 -20 0 -17 -7 -20 -40 -20 -33 0 -40 -3 -40 -20
0 -17 -7 -20 -41 -20 -32 0 -42 -4 -46 -19 -3 -13 -17 -22 -44 -26 -29 -5 -39
-11 -39 -26 0 -16 -7 -19 -45 -19 -38 0 -45 -3 -45 -20 0 -17 -7 -20 -40 -20
-33 0 -40 -3 -40 -20 0 -17 -7 -20 -41 -20 -32 0 -42 -4 -46 -19 -3 -13 -17
-22 -44 -26 -29 -5 -39 -11 -39 -26 0 -16 -7 -19 -45 -19 -38 0 -45 -3 -45
-20 0 -17 -7 -20 -40 -20 -33 0 -40 -3 -40 -19 0 -16 -8 -20 -42 -23 -36 -2
-44 -7 -46 -25 -3 -19 -10 -23 -43 -23 -32 0 -39 -3 -39 -20 0 -17 -7 -20 -45
-20 -38 0 -45 -3 -45 -20 0 -17 -7 -20 -40 -20 l-40 0 0 40 c0 33 3 40 20 40
17 0 20 7 20 40 0 36 3 40 25 40 23 0 25 4 25 45 0 38 3 45 20 45 17 0 20 7
20 40 0 33 3 40 20 40 17 0 20 7 20 45 0 41 2 45 25 45 23 0 25 4 25 40 0 33
3 40 20 40 17 0 20 7 20 45 0 38 3 45 20 45 17 0 20 7 20 40 0 33 3 40 20 40
17 0 20 7 20 45 0 41 2 45 25 45 22 0 25 4 25 39 0 30 4 40 20 44 16 4 20 14
20 46 0 34 3 41 20 41 17 0 20 7 20 45 0 38 3 45 20 45 17 0 20 7 20 40 0 36
3 40 25 40 23 0 25 4 25 45 0 38 3 45 20 45 17 0 20 7 20 40 0 33 3 40 20 40
17 0 20 7 20 45 0 38 3 45 20 45 17 0 20 7 20 40 0 36 3 40 25 40 23 0 25 4
25 45 0 38 3 45 20 45 17 0 20 7 20 40 0 33 3 40 20 40 17 0 20 7 20 45 0 41
2 45 25 45 23 0 25 4 25 40 0 33 3 40 20 40 17 0 20 7 20 45 0 38 3 45 20 45
17 0 20 7 20 40 0 33 3 40 20 40 17 0 20 7 20 45 0 41 2 45 25 45 22 0 25 4
25 39 0 30 4 40 20 44 16 4 20 14 20 46 0 34 3 41 20 41 17 0 20 7 20 45 0 38
3 45 20 45 17 0 20 7 20 40 l0 40 40 0 c33 0 40 -3 40 -20z m2520 -20 c0 -33
3 -40 20 -40 17 0 20 -7 20 -45 0 -38 3 -45 19 -45 15 0 21 -10 26 -40 5 -30
11 -40 26 -40 16 0 19 -7 19 -45 0 -38 3 -45 20 -45 17 0 20 -7 20 -40 0 -33
3 -40 20 -40 17 0 20 -7 20 -45 0 -38 3 -45 19 -45 16 0 21 -9 27 -45 5 -35
10 -45 25 -45 15 0 19 -7 19 -40 0 -33 3 -40 20 -40 17 0 20 -7 20 -41 0 -32
4 -42 20 -46 16 -4 20 -14 20 -44 0 -35 3 -39 25 -39 23 0 25 -4 25 -45 0 -38
3 -45 20 -45 17 0 20 -7 20 -40 0 -33 3 -40 20 -40 17 0 20 -7 20 -45 0 -38 3
-45 20 -45 17 0 20 -7 20 -40 0 -36 3 -40 25 -40 23 0 25 -4 25 -45 0 -38 3
-45 20 -45 17 0 20 -7 20 -40 0 -33 3 -40 20 -40 17 0 20 -7 20 -45 0 -38 3
-45 19 -45 15 0 21 -10 26 -40 5 -30 11 -40 26 -40 16 0 19 -7 19 -45 0 -38 3
-45 20 -45 17 0 20 -7 20 -40 0 -33 3 -40 20 -40 17 0 20 -7 20 -45 0 -38 3
-45 19 -45 16 0 21 -9 27 -45 5 -35 10 -45 25 -45 15 0 19 -7 19 -40 0 -33 3
-40 20 -40 17 0 20 -7 20 -41 0 -32 4 -42 20 -46 16 -4 20 -14 20 -44 0 -35 3
-39 25 -39 23 0 25 -4 25 -45 0 -38 3 -45 20 -45 17 0 20 -7 20 -40 0 -33 3
-40 20 -40 17 0 20 -7 20 -40 l0 -40 -40 0 c-33 0 -40 3 -40 20 0 17 -7 20
-40 20 -33 0 -40 3 -40 20 0 17 -7 20 -45 20 -41 0 -45 2 -45 25 0 22 -4 25
-39 25 -30 0 -40 4 -44 20 -4 16 -14 20 -46 20 -34 0 -41 3 -41 20 0 17 -7 20
-40 20 -33 0 -40 4 -40 19 0 15 -10 20 -45 25 -36 6 -45 11 -45 27 0 16 -7 19
-45 19 -38 0 -45 3 -45 20 0 17 -7 20 -40 20 -33 0 -40 3 -40 20 0 17 -7 20
-45 20 -38 0 -45 3 -45 19 0 15 -10 21 -40 26 -30 5 -40 11 -40 26 0 16 -7 19
-45 19 -38 0 -45 3 -45 20 0 17 -7 20 -40 20 -33 0 -40 3 -40 20 0 17 -7 20
-45 20 -41 0 -45 2 -45 25 0 23 -4 25 -40 25 -33 0 -40 3 -40 20 0 17 -7 20
-45 20 -38 0 -45 3 -45 20 0 17 -7 20 -40 20 -33 0 -40 3 -40 20 0 17 -7 20
-45 20 -41 0 -45 2 -45 25 0 22 -4 25 -39 25 -30 0 -40 4 -44 20 -4 16 -14 20
-46 20 -34 0 -41 3 -41 20 0 17 -7 20 -40 20 -33 0 -40 4 -40 19 0 15 -10 20
-45 25 -36 6 -45 11 -45 27 0 16 -7 19 -45 19 -38 0 -45 3 -45 20 0 17 -7 20
-40 20 -33 0 -40 3 -40 20 0 17 -7 20 -45 20 -38 0 -45 3 -45 19 0 15 -10 21
-40 26 -30 5 -40 11 -40 26 0 16 -7 19 -45 19 -38 0 -45 3 -45 20 0 17 -7 20
-40 20 l-40 0 0 40 c0 33 3 40 20 40 13 0 20 7 20 20 0 13 7 20 20 20 13 0 20
7 20 19 0 13 8 21 23 23 14 2 23 11 25 26 2 14 10 22 23 22 12 0 19 7 19 20 0
13 7 20 20 20 13 0 20 7 20 20 0 14 7 20 21 20 12 0 23 8 26 19 3 11 13 21 24
24 11 3 19 14 19 26 0 14 6 21 20 21 13 0 20 7 20 20 0 13 7 20 20 20 13 0 20
7 20 19 0 13 8 21 23 23 14 2 23 11 25 26 2 14 10 22 23 22 12 0 19 7 19 20 0
13 7 20 20 20 13 0 20 7 20 20 0 13 7 20 20 20 13 0 20 7 20 19 0 13 8 21 23
23 14 2 23 11 25 26 2 14 10 22 23 22 12 0 19 7 19 20 0 13 7 20 20 20 13 0
20 7 20 20 0 13 7 20 20 20 13 0 20 7 20 19 0 13 8 21 23 23 14 2 23 11 25 26
2 14 10 22 23 22 12 0 19 7 19 20 0 13 7 20 20 20 13 0 20 7 20 20 0 14 7 20
21 20 12 0 23 8 26 19 3 11 13 21 24 24 11 3 19 14 19 26 0 14 6 21 20 21 13
0 20 7 20 20 0 13 7 20 20 20 13 0 20 7 20 19 0 13 8 21 23 23 14 2 23 11 25
26 2 14 10 22 23 22 12 0 19 7 19 20 0 13 7 20 20 20 13 0 20 7 20 20 0 17 7
20 40 20 l40 0 0 -40z m-8870 -2365 c0 -8 -9 -15 -20 -15 -11 0 -20 7 -20 15
0 8 9 15 20 15 11 0 20 -7 20 -15z m4940 0 c0 -8 -7 -15 -15 -15 -8 0 -15 7
-15 15 0 8 7 15 15 15 8 0 15 -7 15 -15z m180 0 c0 -8 -9 -15 -20 -15 -11 0
-20 7 -20 15 0 8 9 15 20 15 11 0 20 -7 20 -15z m4940 0 c0 -8 -7 -15 -15 -15
-8 0 -15 7 -15 15 0 8 7 15 15 15 8 0 15 -7 15 -15z m-10060 -170 c0 -8 -9
-15 -20 -15 -11 0 -20 7 -20 15 0 8 9 15 20 15 11 0 20 -7 20 -15z m4940 -5
c0 -11 -7 -20 -15 -20 -8 0 -15 9 -15 20 0 11 7 20 15 20 8 0 15 -9 15 -20z
m180 5 c0 -8 -9 -15 -20 -15 -11 0 -20 7 -20 15 0 8 9 15 20 15 11 0 20 -7 20
-15z m4940 -5 c0 -11 -7 -20 -15 -20 -8 0 -15 9 -15 20 0 11 7 20 15 20 8 0
15 -9 15 -20z m-9980 -39 c0 -16 8 -20 43 -23 35 -2 43 -7 45 -25 3 -19 10
-23 43 -23 32 0 39 -3 39 -20 0 -17 7 -20 45 -20 38 0 45 -3 45 -20 0 -17 7
-20 40 -20 33 0 40 -4 40 -19 0 -15 10 -20 45 -25 36 -6 45 -11 45 -27 0 -16
7 -19 40 -19 33 0 40 -3 40 -20 0 -17 7 -20 45 -20 38 0 45 -3 45 -20 0 -17 7
-20 40 -20 33 0 40 -3 40 -19 0 -16 9 -21 45 -27 35 -5 45 -10 45 -25 0 -15 7
-19 40 -19 33 0 40 -3 40 -20 0 -17 7 -20 45 -20 38 0 45 -3 45 -20 0 -17 7
-20 39 -20 33 0 40 -4 43 -22 2 -19 10 -24 46 -26 34 -3 42 -7 42 -23 0 -16 7
-19 45 -19 38 0 45 -3 45 -20 0 -17 7 -20 40 -20 33 0 40 -3 40 -19 0 -16 8
-20 43 -23 35 -2 43 -7 45 -25 3 -19 10 -23 43 -23 32 0 39 -3 39 -20 0 -17 7
-20 45 -20 38 0 45 -3 45 -20 0 -17 7 -20 40 -20 33 0 40 -4 40 -19 0 -15 10
-20 45 -25 36 -6 45 -11 45 -27 0 -16 7 -19 40 -19 33 0 40 -3 40 -20 0 -17 7
-20 45 -20 38 0 45 -3 45 -20 0 -17 7 -20 40 -20 33 0 40 -3 40 -19 0 -16 9
-21 45 -27 35 -5 45 -10 45 -25 0 -15 7 -19 40 -19 33 0 40 -3 40 -20 0 -17 7
-20 45 -20 38 0 45 -3 45 -20 0 -17 7 -20 40 -20 l40 0 0 -40 c0 -33 -3 -40
-20 -40 -13 0 -20 -7 -20 -20 0 -13 -7 -20 -20 -20 -15 0 -20 -7 -20 -25 0
-18 -5 -25 -20 -25 -13 0 -20 -7 -20 -20 0 -15 -7 -20 -25 -20 -18 0 -25 -5
-25 -20 0 -13 -7 -20 -20 -20 -13 0 -20 -7 -20 -20 0 -13 -7 -20 -20 -20 -15
0 -20 -7 -20 -25 0 -20 -5 -25 -25 -25 -18 0 -25 -5 -25 -20 0 -13 -7 -20 -20
-20 -13 0 -20 -7 -20 -20 0 -13 -7 -20 -20 -20 -15 0 -20 -7 -20 -25 0 -18 -5
-25 -20 -25 -13 0 -20 -7 -20 -20 0 -15 -7 -20 -25 -20 -18 0 -25 -5 -25 -20
0 -13 -7 -20 -20 -20 -13 0 -20 -7 -20 -20 0 -13 -7 -20 -20 -20 -15 0 -20 -7
-20 -25 0 -18 -5 -25 -20 -25 -13 0 -20 -7 -20 -20 0 -15 -7 -20 -25 -20 -18
0 -25 -5 -25 -20 0 -13 -7 -20 -20 -20 -13 0 -20 -7 -20 -20 0 -13 -7 -20 -20
-20 -15 0 -20 -7 -20 -25 0 -18 -5 -25 -20 -25 -13 0 -20 -7 -20 -20 0 -15 -7
-20 -25 -20 -18 0 -25 -5 -25 -20 0 -13 -7 -20 -20 -20 -13 0 -20 -7 -20 -20
0 -13 -7 -20 -20 -20 -15 0 -20 -7 -20 -25 0 -20 -5 -25 -25 -25 -18 0 -25 -5
-25 -20 0 -13 -7 -20 -20 -20 -13 0 -20 -7 -20 -20 0 -13 -7 -20 -20 -20 -15
0 -20 -7 -20 -25 0 -18 -5 -25 -20 -25 -13 0 -20 -7 -20 -20 0 -15 -7 -20 -25
-20 -18 0 -25 -5 -25 -20 0 -13 -7 -20 -20 -20 -13 0 -20 -7 -20 -20 0 -17 -7
-20 -40 -20 l-40 0 0 40 c0 33 -3 40 -20 40 -17 0 -20 7 -20 45 0 38 -3 45
-20 45 -17 0 -20 7 -20 40 0 33 -3 40 -19 40 -16 0 -20 8 -23 43 -2 35 -7 43
-25 45 -19 3 -23 10 -23 43 0 32 -3 39 -20 39 -17 0 -20 7 -20 45 0 38 -3 45
-20 45 -17 0 -20 7 -20 40 0 33 -3 40 -19 40 -16 0 -20 8 -23 43 -2 35 -7 43
-25 45 -19 3 -23 10 -23 43 0 32 -3 39 -20 39 -17 0 -20 7 -20 45 0 38 -3 45
-19 45 -16 0 -20 8 -23 43 -2 35 -7 43 -25 45 -19 3 -23 10 -23 43 0 32 -3 39
-20 39 -17 0 -20 7 -20 45 0 38 -3 45 -20 45 -17 0 -20 7 -20 40 0 33 -3 40
-19 40 -16 0 -20 8 -23 43 -2 35 -7 43 -25 45 -19 3 -23 10 -23 43 0 32 -3 39
-20 39 -17 0 -20 7 -20 45 0 38 -3 45 -20 45 -17 0 -20 7 -20 40 0 33 -3 40
-19 40 -16 0 -20 8 -23 43 -2 35 -7 43 -25 45 -19 3 -23 10 -23 43 0 32 -3 39
-20 39 -17 0 -20 7 -20 45 0 38 -3 45 -20 45 -17 0 -20 7 -20 40 0 33 -3 40
-19 40 -16 0 -20 8 -23 43 -2 35 -7 43 -25 45 -19 3 -23 10 -23 43 0 32 -3 39
-20 39 -17 0 -20 7 -20 45 0 38 -3 45 -19 45 -16 0 -20 8 -23 43 -2 35 -7 43
-25 45 -19 3 -23 10 -23 43 0 32 -3 39 -20 39 -17 0 -20 7 -20 40 l0 40 40 0
c33 0 40 -3 40 -19z m4820 -21 c0 -33 -3 -40 -20 -40 -17 0 -20 -7 -20 -45 0
-38 -3 -45 -20 -45 -17 0 -20 -7 -20 -39 0 -33 -4 -40 -22 -43 -19 -2 -24 -10
-26 -45 -3 -35 -7 -43 -23 -43 -16 0 -19 -7 -19 -40 0 -33 -3 -40 -20 -40 -17
0 -20 -7 -20 -45 0 -38 -3 -45 -19 -45 -15 0 -21 -10 -26 -39 -4 -27 -13 -41
-26 -44 -15 -4 -19 -14 -19 -46 0 -34 -3 -41 -20 -41 -17 0 -20 -7 -20 -40 0
-33 -3 -40 -20 -40 -17 0 -20 -7 -20 -45 0 -38 -3 -45 -19 -45 -15 0 -21 -10
-26 -39 -4 -27 -13 -41 -26 -44 -15 -4 -19 -14 -19 -46 0 -34 -3 -41 -20 -41
-17 0 -20 -7 -20 -40 0 -33 -3 -40 -20 -40 -17 0 -20 -7 -20 -44 0 -39 -3 -45
-22 -48 -19 -2 -24 -10 -26 -45 -3 -35 -7 -43 -23 -43 -16 0 -19 -7 -19 -40 0
-33 -3 -40 -20 -40 -17 0 -20 -7 -20 -45 0 -38 -3 -45 -20 -45 -17 0 -20 -7
-20 -39 0 -33 -4 -40 -22 -43 -19 -2 -24 -10 -26 -45 -3 -35 -7 -43 -23 -43
-16 0 -19 -7 -19 -40 0 -33 -3 -40 -20 -40 -17 0 -20 -7 -20 -45 0 -38 -3 -45
-19 -45 -15 0 -21 -10 -26 -39 -4 -27 -13 -41 -26 -44 -15 -4 -19 -14 -19 -46
0 -34 -3 -41 -20 -41 -17 0 -20 -7 -20 -40 0 -33 -3 -40 -20 -40 -17 0 -20 -7
-20 -45 0 -38 -3 -45 -19 -45 -15 0 -21 -10 -26 -39 -4 -27 -13 -41 -26 -44
-15 -4 -19 -14 -19 -46 0 -34 -3 -41 -20 -41 -17 0 -20 -7 -20 -40 l0 -40 -40
0 c-33 0 -40 3 -40 20 0 13 -7 20 -20 20 -13 0 -20 7 -20 20 0 13 -7 20 -20
20 -13 0 -20 7 -20 20 0 15 -7 20 -25 20 -20 0 -25 5 -25 25 0 18 -5 25 -20
25 -13 0 -20 7 -20 20 0 13 -7 20 -20 20 -13 0 -20 7 -20 20 0 13 -7 20 -19
20 -13 0 -21 8 -23 23 -2 14 -11 23 -25 25 -15 2 -23 10 -23 23 0 12 -7 19
-20 19 -13 0 -20 7 -20 20 0 13 -7 20 -20 20 -13 0 -20 7 -20 20 0 15 -7 20
-25 20 -20 0 -25 5 -25 25 0 18 -5 25 -20 25 -13 0 -20 7 -20 20 0 13 -7 20
-20 20 -13 0 -20 7 -20 20 0 13 -7 20 -20 20 -13 0 -20 7 -20 20 0 15 -7 20
-25 20 -20 0 -25 5 -25 25 0 18 -5 25 -20 25 -13 0 -20 7 -20 20 0 13 -7 20
-20 20 -13 0 -20 7 -20 20 0 13 -7 20 -20 20 -13 0 -20 7 -20 20 0 15 -7 20
-25 20 -20 0 -25 5 -25 25 0 18 -5 25 -20 25 -13 0 -20 7 -20 20 0 13 -7 20
-20 20 -13 0 -20 7 -20 20 0 13 -7 20 -19 20 -13 0 -21 8 -23 23 -2 14 -11 23
-25 25 -15 2 -23 10 -23 23 0 12 -7 19 -20 19 -13 0 -20 7 -20 20 0 13 -7 20
-20 20 -13 0 -20 7 -20 20 0 15 -7 20 -25 20 -20 0 -25 5 -25 25 0 18 -5 25
-20 25 -13 0 -20 7 -20 20 0 13 -7 20 -20 20 -17 0 -20 7 -20 40 l0 40 40 0
c33 0 40 3 40 20 0 17 7 20 45 20 38 0 45 3 45 20 0 17 7 20 40 20 33 0 40 4
40 19 0 15 10 20 45 25 36 6 45 11 45 27 0 16 7 19 40 19 33 0 40 3 40 20 0
17 7 20 45 20 38 0 45 3 45 20 0 17 7 20 41 20 33 0 42 4 46 20 4 14 17 22 44
26 29 5 39 11 39 25 0 16 8 19 45 19 38 0 45 3 45 20 0 17 7 20 40 20 33 0 40
3 40 19 0 16 8 20 43 23 35 2 43 7 45 26 3 18 10 22 43 22 32 0 39 3 39 20 0
17 7 20 45 20 38 0 45 3 45 20 0 17 7 20 40 20 33 0 40 3 40 19 0 16 8 20 43
23 35 2 43 7 45 26 3 18 10 22 43 22 32 0 39 3 39 20 0 17 7 20 45 20 38 0 45
3 45 20 0 17 7 20 40 20 33 0 40 4 40 19 0 15 10 20 45 25 36 6 45 11 45 27 0
16 7 19 40 19 33 0 40 3 40 20 0 17 7 20 45 20 38 0 45 3 45 20 0 17 7 20 41
20 33 0 42 4 46 20 4 14 17 22 44 26 29 5 39 11 39 25 0 16 8 19 45 19 38 0
45 3 45 20 0 17 7 20 40 20 33 0 40 3 40 19 0 16 8 20 43 23 35 2 43 7 45 26
3 18 10 22 43 22 32 0 39 3 39 20 0 17 7 20 40 20 l40 0 0 -40z m300 21 c0
-16 8 -20 43 -23 35 -2 43 -7 45 -25 3 -19 10 -23 43 -23 32 0 39 -3 39 -20 0
-17 7 -20 45 -20 38 0 45 -3 45 -20 0 -17 7 -20 40 -20 33 0 40 -4 40 -19 0
-15 10 -20 45 -25 36 -6 45 -11 45 -27 0 -16 7 -19 40 -19 33 0 40 -3 40 -20
0 -17 7 -20 45 -20 38 0 45 -3 45 -20 0 -17 7 -20 40 -20 33 0 40 -3 40 -19 0
-16 9 -21 45 -27 35 -5 45 -10 45 -25 0 -15 7 -19 40 -19 33 0 40 -3 40 -20 0
-17 7 -20 45 -20 38 0 45 -3 45 -20 0 -17 7 -20 39 -20 33 0 40 -4 43 -22 2
-19 10 -24 46 -26 34 -3 42 -7 42 -23 0 -16 7 -19 45 -19 38 0 45 -3 45 -20 0
-17 7 -20 40 -20 33 0 40 -3 40 -19 0 -16 8 -20 43 -23 35 -2 43 -7 45 -25 3
-19 10 -23 43 -23 32 0 39 -3 39 -20 0 -17 7 -20 45 -20 38 0 45 -3 45 -20 0
-17 7 -20 40 -20 33 0 40 -4 40 -19 0 -15 10 -20 45 -25 36 -6 45 -11 45 -27
0 -16 7 -19 40 -19 33 0 40 -3 40 -20 0 -17 7 -20 45 -20 38 0 45 -3 45 -20 0
-17 7 -20 40 -20 33 0 40 -3 40 -19 0 -16 9 -21 45 -27 35 -5 45 -10 45 -25 0
-15 7 -19 40 -19 33 0 40 -3 40 -20 0 -17 7 -20 45 -20 38 0 45 -3 45 -20 0
-17 7 -20 40 -20 l40 0 0 -40 c0 -33 -3 -40 -20 -40 -13 0 -20 -7 -20 -20 0
-13 -7 -20 -20 -20 -15 0 -20 -7 -20 -25 0 -18 -5 -25 -20 -25 -13 0 -20 -7
-20 -20 0 -15 -7 -20 -25 -20 -18 0 -25 -5 -25 -20 0 -13 -7 -20 -20 -20 -13
0 -20 -7 -20 -20 0 -13 -7 -20 -20 -20 -15 0 -20 -7 -20 -25 0 -20 -5 -25 -25
-25 -18 0 -25 -5 -25 -20 0 -13 -7 -20 -20 -20 -13 0 -20 -7 -20 -20 0 -13 -7
-20 -20 -20 -15 0 -20 -7 -20 -25 0 -18 -5 -25 -20 -25 -13 0 -20 -7 -20 -20
0 -15 -7 -20 -25 -20 -18 0 -25 -5 -25 -20 0 -13 -7 -20 -20 -20 -13 0 -20 -7
-20 -20 0 -13 -7 -20 -20 -20 -15 0 -20 -7 -20 -25 0 -18 -5 -25 -20 -25 -13
0 -20 -7 -20 -20 0 -15 -7 -20 -25 -20 -18 0 -25 -5 -25 -20 0 -13 -7 -20 -20
-20 -13 0 -20 -7 -20 -20 0 -13 -7 -20 -20 -20 -15 0 -20 -7 -20 -25 0 -18 -5
-25 -20 -25 -13 0 -20 -7 -20 -20 0 -15 -7 -20 -25 -20 -18 0 -25 -5 -25 -20
0 -13 -7 -20 -20 -20 -13 0 -20 -7 -20 -20 0 -13 -7 -20 -20 -20 -15 0 -20 -7
-20 -25 0 -20 -5 -25 -25 -25 -18 0 -25 -5 -25 -20 0 -13 -7 -20 -20 -20 -13
0 -20 -7 -20 -20 0 -13 -7 -20 -20 -20 -15 0 -20 -7 -20 -25 0 -18 -5 -25 -20
-25 -13 0 -20 -7 -20 -20 0 -15 -7 -20 -25 -20 -18 0 -25 -5 -25 -20 0 -13 -7
-20 -20 -20 -13 0 -20 -7 -20 -20 0 -17 -7 -20 -40 -20 l-40 0 0 40 c0 33 -3
40 -20 40 -17 0 -20 7 -20 45 0 38 -3 45 -20 45 -17 0 -20 7 -20 40 0 33 -3
40 -19 40 -16 0 -20 8 -23 43 -2 35 -7 43 -25 45 -19 3 -23 10 -23 43 0 32 -3
39 -20 39 -17 0 -20 7 -20 45 0 38 -3 45 -20 45 -17 0 -20 7 -20 40 0 33 -3
40 -19 40 -16 0 -20 8 -23 43 -2 35 -7 43 -25 45 -19 3 -23 10 -23 43 0 32 -3
39 -20 39 -17 0 -20 7 -20 45 0 38 -3 45 -19 45 -16 0 -20 8 -23 43 -2 35 -7
43 -25 45 -19 3 -23 10 -23 43 0 32 -3 39 -20 39 -17 0 -20 7 -20 45 0 38 -3
45 -20 45 -17 0 -20 7 -20 40 0 33 -3 40 -19 40 -16 0 -20 8 -23 43 -2 35 -7
43 -25 45 -19 3 -23 10 -23 43 0 32 -3 39 -20 39 -17 0 -20 7 -20 45 0 38 -3
45 -20 45 -17 0 -20 7 -20 40 0 33 -3 40 -19 40 -16 0 -20 8 -23 43 -2 35 -7
43 -25 45 -19 3 -23 10 -23 43 0 32 -3 39 -20 39 -17 0 -20 7 -20 45 0 38 -3
45 -20 45 -17 0 -20 7 -20 40 0 33 -3 40 -19 40 -16 0 -20 8 -23 43 -2 35 -7
43 -25 45 -19 3 -23 10 -23 43 0 32 -3 39 -20 39 -17 0 -20 7 -20 45 0 38 -3
45 -19 45 -16 0 -20 8 -23 43 -2 35 -7 43 -25 45 -19 3 -23 10 -23 43 0 32 -3
39 -20 39 -17 0 -20 7 -20 40 l0 40 40 0 c33 0 40 -3 40 -19z m4820 -21 c0
-33 -3 -40 -20 -40 -17 0 -20 -7 -20 -45 0 -38 -3 -45 -20 -45 -17 0 -20 -7
-20 -39 0 -33 -4 -40 -22 -43 -19 -2 -24 -10 -26 -45 -3 -35 -7 -43 -23 -43
-16 0 -19 -7 -19 -40 0 -33 -3 -40 -20 -40 -17 0 -20 -7 -20 -45 0 -38 -3 -45
-19 -45 -15 0 -21 -10 -26 -39 -4 -27 -13 -41 -26 -44 -15 -4 -19 -14 -19 -46
0 -34 -3 -41 -20 -41 -17 0 -20 -7 -20 -40 0 -33 -3 -40 -20 -40 -17 0 -20 -7
-20 -45 0 -38 -3 -45 -19 -45 -15 0 -21 -10 -26 -39 -4 -27 -13 -41 -26 -44
-15 -4 -19 -14 -19 -46 0 -34 -3 -41 -20 -41 -17 0 -20 -7 -20 -40 0 -33 -3
-40 -20 -40 -17 0 -20 -7 -20 -44 0 -39 -3 -45 -22 -48 -19 -2 -24 -10 -26
-45 -3 -35 -7 -43 -23 -43 -16 0 -19 -7 -19 -40 0 -33 -3 -40 -20 -40 -17 0
-20 -7 -20 -45 0 -38 -3 -45 -20 -45 -17 0 -20 -7 -20 -39 0 -33 -4 -40 -22
-43 -19 -2 -24 -10 -26 -45 -3 -35 -7 -43 -23 -43 -16 0 -19 -7 -19 -40 0 -33
-3 -40 -20 -40 -17 0 -20 -7 -20 -45 0 -38 -3 -45 -19 -45 -15 0 -21 -10 -26
-39 -4 -27 -13 -41 -26 -44 -15 -4 -19 -14 -19 -46 0 -34 -3 -41 -20 -41 -17
0 -20 -7 -20 -40 0 -33 -3 -40 -20 -40 -17 0 -20 -7 -20 -45 0 -38 -3 -45 -19
-45 -15 0 -21 -10 -26 -39 -4 -27 -13 -41 -26 -44 -15 -4 -19 -14 -19 -46 0
-34 -3 -41 -20 -41 -17 0 -20 -7 -20 -40 l0 -40 -40 0 c-33 0 -40 3 -40 20 0
13 -7 20 -20 20 -13 0 -20 7 -20 20 0 13 -7 20 -20 20 -13 0 -20 7 -20 20 0
15 -7 20 -25 20 -20 0 -25 5 -25 25 0 18 -5 25 -20 25 -13 0 -20 7 -20 20 0
13 -7 20 -20 20 -13 0 -20 7 -20 20 0 13 -7 20 -19 20 -13 0 -21 8 -23 23 -2
14 -11 23 -25 25 -15 2 -23 10 -23 23 0 12 -7 19 -20 19 -13 0 -20 7 -20 20 0
13 -7 20 -20 20 -13 0 -20 7 -20 20 0 15 -7 20 -25 20 -20 0 -25 5 -25 25 0
18 -5 25 -20 25 -13 0 -20 7 -20 20 0 13 -7 20 -20 20 -13 0 -20 7 -20 20 0
13 -7 20 -20 20 -13 0 -20 7 -20 20 0 15 -7 20 -25 20 -20 0 -25 5 -25 25 0
18 -5 25 -20 25 -13 0 -20 7 -20 20 0 13 -7 20 -20 20 -13 0 -20 7 -20 20 0
13 -7 20 -20 20 -13 0 -20 7 -20 20 0 15 -7 20 -25 20 -20 0 -25 5 -25 25 0
18 -5 25 -20 25 -13 0 -20 7 -20 20 0 13 -7 20 -20 20 -13 0 -20 7 -20 20 0
13 -7 20 -19 20 -13 0 -21 8 -23 23 -2 14 -11 23 -25 25 -15 2 -23 10 -23 23
0 12 -7 19 -20 19 -13 0 -20 7 -20 20 0 13 -7 20 -20 20 -13 0 -20 7 -20 20 0
15 -7 20 -25 20 -20 0 -25 5 -25 25 0 18 -5 25 -20 25 -13 0 -20 7 -20 20 0
13 -7 20 -20 20 -17 0 -20 7 -20 40 l0 40 40 0 c33 0 40 3 40 20 0 17 7 20 45
20 38 0 45 3 45 20 0 17 7 20 40 20 33 0 40 4 40 19 0 15 10 20 45 25 36 6 45
11 45 27 0 16 7 19 40 19 33 0 40 3 40 20 0 17 7 20 45 20 38 0 45 3 45 20 0
17 7 20 41 20 33 0 42 4 46 20 4 14 17 22 44 26 29 5 39 11 39 25 0 16 8 19
45 19 38 0 45 3 45 20 0 17 7 20 40 20 33 0 40 3 40 19 0 16 8 20 43 23 35 2
43 7 45 26 3 18 10 22 43 22 32 0 39 3 39 20 0 17 7 20 45 20 38 0 45 3 45 20
0 17 7 20 40 20 33 0 40 3 40 19 0 16 8 20 43 23 35 2 43 7 45 26 3 18 10 22
43 22 32 0 39 3 39 20 0 17 7 20 45 20 38 0 45 3 45 20 0 17 7 20 40 20 33 0
40 4 40 19 0 15 10 20 45 25 36 6 45 11 45 27 0 16 7 19 40 19 33 0 40 3 40
20 0 17 7 20 45 20 38 0 45 3 45 20 0 17 7 20 41 20 33 0 42 4 46 20 4 14 17
22 44 26 29 5 39 11 39 25 0 16 8 19 45 19 38 0 45 3 45 20 0 17 7 20 40 20
33 0 40 3 40 19 0 16 8 20 43 23 35 2 43 7 45 26 3 18 10 22 43 22 32 0 39 3
39 20 0 17 7 20 40 20 l40 0 0 -40z m-8790 -2500 c0 -13 7 -20 20 -20 13 0 20
-7 20 -20 0 -15 7 -20 25 -20 20 0 25 -5 25 -25 0 -18 5 -25 20 -25 13 0 20
-7 20 -20 0 -13 7 -20 20 -20 13 0 20 -7 20 -20 0 -13 7 -20 19 -20 13 0 21
-8 23 -22 2 -15 11 -24 26 -26 14 -2 22 -10 22 -23 0 -12 7 -19 20 -19 13 0
20 -7 20 -20 0 -13 7 -20 20 -20 13 0 20 -7 20 -20 0 -15 7 -20 25 -20 20 0
25 -5 25 -25 0 -18 5 -25 20 -25 13 0 20 -7 20 -20 0 -13 7 -20 20 -20 13 0
20 -7 20 -20 0 -13 7 -20 20 -20 13 0 20 -7 20 -20 0 -15 7 -20 25 -20 20 0
25 -5 25 -25 0 -18 5 -25 20 -25 13 0 20 -7 20 -20 0 -13 7 -20 20 -20 13 0
20 -7 20 -20 0 -13 7 -20 20 -20 13 0 20 -7 20 -20 0 -15 7 -20 25 -20 20 0
25 -5 25 -25 0 -18 5 -25 20 -25 13 0 20 -7 20 -20 0 -13 7 -20 20 -20 13 0
20 -7 20 -20 0 -13 7 -20 19 -20 13 0 21 -8 23 -22 2 -15 11 -24 26 -26 14 -2
22 -10 22 -23 0 -12 7 -19 20 -19 13 0 20 -7 20 -20 0 -13 7 -20 20 -20 13 0
20 -7 20 -20 0 -15 7 -20 25 -20 20 0 25 -5 25 -25 0 -18 5 -25 20 -25 13 0
20 -7 20 -20 0 -13 7 -20 20 -20 13 0 20 -7 20 -20 0 -13 7 -20 20 -20 17 0
20 -7 20 -40 l0 -40 -40 0 c-33 0 -40 -3 -40 -20 0 -17 -7 -20 -41 -20 -32 0
-42 -4 -46 -19 -3 -13 -17 -22 -44 -26 -29 -5 -39 -11 -39 -26 0 -16 -7 -19
-45 -19 -38 0 -45 -3 -45 -20 0 -17 -7 -20 -40 -20 -33 0 -40 -3 -40 -20 0
-17 -7 -20 -41 -20 -32 0 -42 -4 -46 -19 -3 -13 -17 -22 -44 -26 -29 -5 -39
-11 -39 -26 0 -16 -7 -19 -45 -19 -38 0 -45 -3 -45 -20 0 -17 -7 -20 -40 -20
-33 0 -40 -3 -40 -19 0 -16 -8 -20 -42 -23 -36 -2 -44 -7 -46 -25 -3 -19 -10
-23 -43 -23 -32 0 -39 -3 -39 -20 0 -17 -7 -20 -45 -20 -38 0 -45 -3 -45 -20
0 -17 -7 -20 -40 -20 -33 0 -40 -3 -40 -19 0 -16 -8 -20 -42 -23 -36 -2 -44
-7 -46 -25 -3 -20 -9 -23 -48 -23 -37 0 -44 -3 -44 -20 0 -17 -7 -20 -40 -20
-33 0 -40 -3 -40 -20 0 -17 -7 -20 -41 -20 -32 0 -42 -4 -46 -19 -3 -13 -17
-22 -44 -26 -29 -5 -39 -11 -39 -26 0 -16 -7 -19 -45 -19 -38 0 -45 -3 -45
-20 0 -17 -7 -20 -40 -20 -33 0 -40 -3 -40 -20 0 -17 -7 -20 -41 -20 -32 0
-42 -4 -46 -19 -3 -13 -17 -22 -44 -26 -29 -5 -39 -11 -39 -26 0 -16 -7 -19
-45 -19 -38 0 -45 -3 -45 -20 0 -17 -7 -20 -40 -20 -33 0 -40 -3 -40 -19 0
-16 -8 -20 -42 -23 -36 -2 -44 -7 -46 -25 -3 -19 -10 -23 -43 -23 -32 0 -39
-3 -39 -20 0 -17 -7 -20 -45 -20 -38 0 -45 -3 -45 -20 0 -17 -7 -20 -40 -20
l-40 0 0 40 c0 33 3 40 20 40 17 0 20 7 20 40 0 36 3 40 25 40 23 0 25 4 25
45 0 38 3 45 20 45 17 0 20 7 20 40 0 33 3 40 20 40 17 0 20 7 20 45 0 41 2
45 25 45 23 0 25 4 25 40 0 33 3 40 20 40 17 0 20 7 20 45 0 38 3 45 20 45 17
0 20 7 20 40 0 33 3 40 20 40 17 0 20 7 20 45 0 41 2 45 25 45 22 0 25 4 25
39 0 30 4 40 20 44 16 4 20 14 20 46 0 34 3 41 20 41 17 0 20 7 20 45 0 38 3
45 20 45 17 0 20 7 20 40 0 36 3 40 25 40 23 0 25 4 25 45 0 38 3 45 20 45 17
0 20 7 20 40 0 33 3 40 20 40 17 0 20 7 20 45 0 38 3 45 20 45 17 0 20 7 20
40 0 36 3 40 25 40 23 0 25 4 25 45 0 38 3 45 20 45 17 0 20 7 20 40 0 33 3
40 20 40 17 0 20 7 20 45 0 41 2 45 25 45 23 0 25 4 25 40 0 33 3 40 20 40 17
0 20 7 20 45 0 38 3 45 20 45 17 0 20 7 20 40 0 33 3 40 20 40 17 0 20 7 20
45 0 41 2 45 25 45 22 0 25 4 25 39 0 30 4 40 20 44 16 4 20 14 20 46 0 34 3
41 20 41 17 0 20 7 20 45 0 38 3 45 20 45 17 0 20 7 20 40 l0 40 40 0 c33 0
40 -3 40 -20z m2520 -20 c0 -33 3 -40 20 -40 17 0 20 -7 20 -45 0 -38 3 -45
19 -45 15 0 21 -10 26 -40 5 -30 11 -40 26 -40 16 0 19 -7 19 -45 0 -38 3 -45
20 -45 17 0 20 -7 20 -40 0 -33 3 -40 20 -40 17 0 20 -7 20 -45 0 -38 3 -45
19 -45 16 0 21 -9 27 -45 5 -35 10 -45 25 -45 15 0 19 -7 19 -40 0 -33 3 -40
20 -40 17 0 20 -7 20 -41 0 -32 4 -42 20 -46 16 -4 20 -14 20 -44 0 -35 3 -39
25 -39 23 0 25 -4 25 -45 0 -38 3 -45 20 -45 17 0 20 -7 20 -40 0 -33 3 -40
20 -40 17 0 20 -7 20 -45 0 -38 3 -45 20 -45 17 0 20 -7 20 -40 0 -36 3 -40
25 -40 23 0 25 -4 25 -45 0 -38 3 -45 20 -45 17 0 20 -7 20 -40 0 -33 3 -40
20 -40 17 0 20 -7 20 -45 0 -38 3 -45 19 -45 15 0 21 -10 26 -40 5 -30 11 -40
26 -40 16 0 19 -7 19 -45 0 -38 3 -45 20 -45 17 0 20 -7 20 -40 0 -33 3 -40
20 -40 17 0 20 -7 20 -45 0 -38 3 -45 19 -45 16 0 21 -9 27 -45 5 -35 10 -45
25 -45 15 0 19 -7 19 -40 0 -33 3 -40 20 -40 17 0 20 -7 20 -41 0 -32 4 -42
20 -46 16 -4 20 -14 20 -44 0 -35 3 -39 25 -39 23 0 25 -4 25 -45 0 -38 3 -45
20 -45 17 0 20 -7 20 -40 0 -33 3 -40 20 -40 17 0 20 -7 20 -40 l0 -40 -40 0
c-33 0 -40 3 -40 20 0 17 -7 20 -40 20 -33 0 -40 3 -40 20 0 17 -7 20 -45 20
-41 0 -45 2 -45 25 0 22 -4 25 -39 25 -30 0 -40 4 -44 20 -4 16 -14 20 -46 20
-34 0 -41 3 -41 20 0 17 -7 20 -40 20 -33 0 -40 4 -40 19 0 15 -10 20 -45 25
-36 6 -45 11 -45 27 0 16 -7 19 -45 19 -38 0 -45 3 -45 20 0 17 -7 20 -40 20
-33 0 -40 3 -40 20 0 17 -7 20 -45 20 -38 0 -45 3 -45 19 0 15 -10 21 -40 26
-30 5 -40 11 -40 26 0 16 -7 19 -45 19 -38 0 -45 3 -45 20 0 17 -7 20 -40 20
-33 0 -40 3 -40 20 0 17 -7 20 -45 20 -41 0 -45 2 -45 25 0 23 -4 25 -40 25
-33 0 -40 3 -40 20 0 17 -7 20 -45 20 -38 0 -45 3 -45 20 0 17 -7 20 -40 20
-33 0 -40 3 -40 20 0 17 -7 20 -45 20 -41 0 -45 2 -45 25 0 22 -4 25 -39 25
-30 0 -40 4 -44 20 -4 16 -14 20 -46 20 -34 0 -41 3 -41 20 0 17 -7 20 -40 20
-33 0 -40 4 -40 19 0 15 -10 20 -45 25 -36 6 -45 11 -45 27 0 16 -7 19 -45 19
-38 0 -45 3 -45 20 0 17 -7 20 -40 20 -33 0 -40 3 -40 20 0 17 -7 20 -45 20
-38 0 -45 3 -45 19 0 15 -10 21 -40 26 -30 5 -40 11 -40 26 0 16 -7 19 -45 19
-38 0 -45 3 -45 20 0 17 -7 20 -40 20 l-40 0 0 40 c0 33 3 40 20 40 13 0 20 7
20 20 0 13 7 20 20 20 13 0 20 7 20 19 0 13 8 21 23 23 14 2 23 11 25 26 2 14
10 22 23 22 12 0 19 7 19 20 0 13 7 20 20 20 13 0 20 7 20 20 0 14 7 20 21 20
12 0 23 8 26 19 3 11 13 21 24 24 11 3 19 14 19 26 0 14 6 21 20 21 13 0 20 7
20 20 0 13 7 20 20 20 13 0 20 7 20 19 0 13 8 21 23 23 14 2 23 11 25 26 2 14
10 22 23 22 12 0 19 7 19 20 0 13 7 20 20 20 13 0 20 7 20 20 0 13 7 20 20 20
13 0 20 7 20 19 0 13 8 21 23 23 14 2 23 11 25 26 2 14 10 22 23 22 12 0 19 7
19 20 0 13 7 20 20 20 13 0 20 7 20 20 0 13 7 20 20 20 13 0 20 7 20 19 0 13
8 21 23 23 14 2 23 11 25 26 2 14 10 22 23 22 12 0 19 7 19 20 0 13 7 20 20
20 13 0 20 7 20 20 0 14 7 20 21 20 12 0 23 8 26 19 3 11 13 21 24 24 11 3 19
14 19 26 0 14 6 21 20 21 13 0 20 7 20 20 0 13 7 20 20 20 13 0 20 7 20 19 0
13 8 21 23 23 14 2 23 11 25 26 2 14 10 22 23 22 12 0 19 7 19 20 0 13 7 20
20 20 13 0 20 7 20 20 0 17 7 20 40 20 l40 0 0 -40z m2600 20 c0 -13 7 -20 20
-20 13 0 20 -7 20 -20 0 -15 7 -20 25 -20 20 0 25 -5 25 -25 0 -18 5 -25 20
-25 13 0 20 -7 20 -20 0 -13 7 -20 20 -20 13 0 20 -7 20 -20 0 -13 7 -20 19
-20 13 0 21 -8 23 -22 2 -15 11 -24 26 -26 14 -2 22 -10 22 -23 0 -12 7 -19
20 -19 13 0 20 -7 20 -20 0 -13 7 -20 20 -20 13 0 20 -7 20 -20 0 -15 7 -20
25 -20 20 0 25 -5 25 -25 0 -18 5 -25 20 -25 13 0 20 -7 20 -20 0 -13 7 -20
20 -20 13 0 20 -7 20 -20 0 -13 7 -20 20 -20 13 0 20 -7 20 -20 0 -15 7 -20
25 -20 20 0 25 -5 25 -25 0 -18 5 -25 20 -25 13 0 20 -7 20 -20 0 -13 7 -20
20 -20 13 0 20 -7 20 -20 0 -13 7 -20 20 -20 13 0 20 -7 20 -20 0 -15 7 -20
25 -20 20 0 25 -5 25 -25 0 -18 5 -25 20 -25 13 0 20 -7 20 -20 0 -13 7 -20
20 -20 13 0 20 -7 20 -20 0 -13 7 -20 19 -20 13 0 21 -8 23 -22 2 -15 11 -24
26 -26 14 -2 22 -10 22 -23 0 -12 7 -19 20 -19 13 0 20 -7 20 -20 0 -13 7 -20
20 -20 13 0 20 -7 20 -20 0 -15 7 -20 25 -20 20 0 25 -5 25 -25 0 -18 5 -25
20 -25 13 0 20 -7 20 -20 0 -13 7 -20 20 -20 13 0 20 -7 20 -20 0 -13 7 -20
20 -20 17 0 20 -7 20 -40 l0 -40 -40 0 c-33 0 -40 -3 -40 -20 0 -17 -7 -20
-41 -20 -32 0 -42 -4 -46 -19 -3 -13 -17 -22 -44 -26 -29 -5 -39 -11 -39 -26
0 -16 -7 -19 -45 -19 -38 0 -45 -3 -45 -20 0 -17 -7 -20 -40 -20 -33 0 -40 -3
-40 -20 0 -17 -7 -20 -41 -20 -32 0 -42 -4 -46 -19 -3 -13 -17 -22 -44 -26
-29 -5 -39 -11 -39 -26 0 -16 -7 -19 -45 -19 -38 0 -45 -3 -45 -20 0 -17 -7
-20 -40 -20 -33 0 -40 -3 -40 -19 0 -16 -8 -20 -42 -23 -36 -2 -44 -7 -46 -25
-3 -19 -10 -23 -43 -23 -32 0 -39 -3 -39 -20 0 -17 -7 -20 -45 -20 -38 0 -45
-3 -45 -20 0 -17 -7 -20 -40 -20 -33 0 -40 -3 -40 -19 0 -16 -8 -20 -42 -23
-36 -2 -44 -7 -46 -25 -3 -20 -9 -23 -48 -23 -37 0 -44 -3 -44 -20 0 -17 -7
-20 -40 -20 -33 0 -40 -3 -40 -20 0 -17 -7 -20 -41 -20 -32 0 -42 -4 -46 -19
-3 -13 -17 -22 -44 -26 -29 -5 -39 -11 -39 -26 0 -16 -7 -19 -45 -19 -38 0
-45 -3 -45 -20 0 -17 -7 -20 -40 -20 -33 0 -40 -3 -40 -20 0 -17 -7 -20 -41
-20 -32 0 -42 -4 -46 -19 -3 -13 -17 -22 -44 -26 -29 -5 -39 -11 -39 -26 0
-16 -7 -19 -45 -19 -38 0 -45 -3 -45 -20 0 -17 -7 -20 -40 -20 -33 0 -40 -3
-40 -19 0 -16 -8 -20 -42 -23 -36 -2 -44 -7 -46 -25 -3 -19 -10 -23 -43 -23
-32 0 -39 -3 -39 -20 0 -17 -7 -20 -45 -20 -38 0 -45 -3 -45 -20 0 -17 -7 -20
-40 -20 l-40 0 0 40 c0 33 3 40 20 40 17 0 20 7 20 40 0 36 3 40 25 40 23 0
25 4 25 45 0 38 3 45 20 45 17 0 20 7 20 40 0 33 3 40 20 40 17 0 20 7 20 45
0 41 2 45 25 45 23 0 25 4 25 40 0 33 3 40 20 40 17 0 20 7 20 45 0 38 3 45
20 45 17 0 20 7 20 40 0 33 3 40 20 40 17 0 20 7 20 45 0 41 2 45 25 45 22 0
25 4 25 39 0 30 4 40 20 44 16 4 20 14 20 46 0 34 3 41 20 41 17 0 20 7 20 45
0 38 3 45 20 45 17 0 20 7 20 40 0 36 3 40 25 40 23 0 25 4 25 45 0 38 3 45
20 45 17 0 20 7 20 40 0 33 3 40 20 40 17 0 20 7 20 45 0 38 3 45 20 45 17 0
20 7 20 40 0 36 3 40 25 40 23 0 25 4 25 45 0 38 3 45 20 45 17 0 20 7 20 40
0 33 3 40 20 40 17 0 20 7 20 45 0 41 2 45 25 45 23 0 25 4 25 40 0 33 3 40
20 40 17 0 20 7 20 45 0 38 3 45 20 45 17 0 20 7 20 40 0 33 3 40 20 40 17 0
20 7 20 45 0 41 2 45 25 45 22 0 25 4 25 39 0 30 4 40 20 44 16 4 20 14 20 46
0 34 3 41 20 41 17 0 20 7 20 45 0 38 3 45 20 45 17 0 20 7 20 40 l0 40 40 0
c33 0 40 -3 40 -20z m2520 -20 c0 -33 3 -40 20 -40 17 0 20 -7 20 -45 0 -38 3
-45 19 -45 15 0 21 -10 26 -40 5 -30 11 -40 26 -40 16 0 19 -7 19 -45 0 -38 3
-45 20 -45 17 0 20 -7 20 -40 0 -33 3 -40 20 -40 17 0 20 -7 20 -45 0 -38 3
-45 19 -45 16 0 21 -9 27 -45 5 -35 10 -45 25 -45 15 0 19 -7 19 -40 0 -33 3
-40 20 -40 17 0 20 -7 20 -41 0 -32 4 -42 20 -46 16 -4 20 -14 20 -44 0 -35 3
-39 25 -39 23 0 25 -4 25 -45 0 -38 3 -45 20 -45 17 0 20 -7 20 -40 0 -33 3
-40 20 -40 17 0 20 -7 20 -45 0 -38 3 -45 20 -45 17 0 20 -7 20 -40 0 -36 3
-40 25 -40 23 0 25 -4 25 -45 0 -38 3 -45 20 -45 17 0 20 -7 20 -40 0 -33 3
-40 20 -40 17 0 20 -7 20 -45 0 -38 3 -45 19 -45 15 0 21 -10 26 -40 5 -30 11
-40 26 -40 16 0 19 -7 19 -45 0 -38 3 -45 20 -45 17 0 20 -7 20 -40 0 -33 3
-40 20 -40 17 0 20 -7 20 -45 0 -38 3 -45 19 -45 16 0 21 -9 27 -45 5 -35 10
-45 25 -45 15 0 19 -7 19 -40 0 -33 3 -40 20 -40 17 0 20 -7 20 -41 0 -32 4
-42 20 -46 16 -4 20 -14 20 -44 0 -35 3 -39 25 -39 23 0 25 -4 25 -45 0 -38 3
-45 20 -45 17 0 20 -7 20 -40 0 -33 3 -40 20 -40 17 0 20 -7 20 -40 l0 -40
-40 0 c-33 0 -40 3 -40 20 0 17 -7 20 -40 20 -33 0 -40 3 -40 20 0 17 -7 20
-45 20 -41 0 -45 2 -45 25 0 22 -4 25 -39 25 -30 0 -40 4 -44 20 -4 16 -14 20
-46 20 -34 0 -41 3 -41 20 0 17 -7 20 -40 20 -33 0 -40 4 -40 19 0 15 -10 20
-45 25 -36 6 -45 11 -45 27 0 16 -7 19 -45 19 -38 0 -45 3 -45 20 0 17 -7 20
-40 20 -33 0 -40 3 -40 20 0 17 -7 20 -45 20 -38 0 -45 3 -45 19 0 15 -10 21
-40 26 -30 5 -40 11 -40 26 0 16 -7 19 -45 19 -38 0 -45 3 -45 20 0 17 -7 20
-40 20 -33 0 -40 3 -40 20 0 17 -7 20 -45 20 -41 0 -45 2 -45 25 0 23 -4 25
-40 25 -33 0 -40 3 -40 20 0 17 -7 20 -45 20 -38 0 -45 3 -45 20 0 17 -7 20
-40 20 -33 0 -40 3 -40 20 0 17 -7 20 -45 20 -41 0 -45 2 -45 25 0 22 -4 25
-39 25 -30 0 -40 4 -44 20 -4 16 -14 20 -46 20 -34 0 -41 3 -41 20 0 17 -7 20
-40 20 -33 0 -40 4 -40 19 0 15 -10 20 -45 25 -36 6 -45 11 -45 27 0 16 -7 19
-45 19 -38 0 -45 3 -45 20 0 17 -7 20 -40 20 -33 0 -40 3 -40 20 0 17 -7 20
-45 20 -38 0 -45 3 -45 19 0 15 -10 21 -40 26 -30 5 -40 11 -40 26 0 16 -7 19
-45 19 -38 0 -45 3 -45 20 0 17 -7 20 -40 20 l-40 0 0 40 c0 33 3 40 20 40 13
0 20 7 20 20 0 13 7 20 20 20 13 0 20 7 20 19 0 13 8 21 23 23 14 2 23 11 25
26 2 14 10 22 23 22 12 0 19 7 19 20 0 13 7 20 20 20 13 0 20 7 20 20 0 14 7
20 21 20 12 0 23 8 26 19 3 11 13 21 24 24 11 3 19 14 19 26 0 14 6 21 20 21
13 0 20 7 20 20 0 13 7 20 20 20 13 0 20 7 20 19 0 13 8 21 23 23 14 2 23 11
25 26 2 14 10 22 23 22 12 0 19 7 19 20 0 13 7 20 20 20 13 0 20 7 20 20 0 13
7 20 20 20 13 0 20 7 20 19 0 13 8 21 23 23 14 2 23 11 25 26 2 14 10 22 23
22 12 0 19 7 19 20 0 13 7 20 20 20 13 0 20 7 20 20 0 13 7 20 20 20 13 0 20
7 20 19 0 13 8 21 23 23 14 2 23 11 25 26 2 14 10 22 23 22 12 0 19 7 19 20 0
13 7 20 20 20 13 0 20 7 20 20 0 14 7 20 21 20 12 0 23 8 26 19 3 11 13 21 24
24 11 3 19 14 19 26 0 14 6 21 20 21 13 0 20 7 20 20 0 13 7 20 20 20 13 0 20
7 20 19 0 13 8 21 23 23 14 2 23 11 25 26 2 14 10 22 23 22 12 0 19 7 19 20 0
13 7 20 20 20 13 0 20 7 20 20 0 17 7 20 40 20 l40 0 0 -40z m-8870 -2365 c0
-8 -9 -15 -20 -15 -11 0 -20 7 -20 15 0 8 9 15 20 15 11 0 20 -7 20 -15z
m4940 0 c0 -8 -7 -15 -15 -15 -8 0 -15 7 -15 15 0 8 7 15 15 15 8 0 15 -7 15
-15z m180 0 c0 -8 -9 -15 -20 -15 -11 0 -20 7 -20 15 0 8 9 15 20 15 11 0 20
-7 20 -15z m4940 0 c0 -8 -7 -15 -15 -15 -8 0 -15 7 -15 15 0 8 7 15 15 15 8
0 15 -7 15 -15z"/>
<path d="M660 13868 c-353 -921 -565 -1904 -642 -2973 -17 -239 -17 -1071 0
-1310 62 -852 193 -1572 432 -2359 90 -296 253 -746 271 -746 5 0 9 20 9 45 0
38 3 45 20 45 17 0 20 7 20 40 0 33 3 40 20 40 17 0 20 7 20 45 0 41 2 45 25
45 22 0 25 4 25 39 0 30 4 40 20 44 16 4 20 14 20 46 0 34 3 41 20 41 17 0 20
7 20 40 0 33 4 40 19 40 15 0 20 10 25 45 6 36 11 45 27 45 16 0 19 7 19 45 0
38 3 45 20 45 17 0 20 7 20 40 0 33 3 40 20 40 17 0 20 7 20 45 0 38 3 45 19
45 15 0 21 10 26 40 5 30 11 40 26 40 16 0 19 7 19 45 0 38 3 45 20 45 17 0
20 7 20 40 0 33 3 40 20 40 17 0 20 7 20 45 0 41 2 45 25 45 23 0 25 4 25 40
0 33 3 40 20 40 17 0 20 7 20 45 0 38 3 45 20 45 17 0 20 7 20 40 0 33 3 40
20 40 17 0 20 7 20 45 0 41 2 45 25 45 22 0 25 4 25 39 0 30 4 40 20 44 16 4
20 14 20 46 0 34 3 41 20 41 17 0 20 7 20 40 0 33 4 40 19 40 15 0 20 10 25
45 6 36 11 45 27 45 16 0 19 7 19 45 0 38 3 45 20 45 17 0 20 7 20 40 0 33 3
40 20 40 17 0 20 7 20 45 0 38 3 45 19 45 15 0 21 10 26 40 5 30 11 40 26 40
16 0 19 7 19 45 0 38 3 45 20 45 17 0 20 7 20 40 0 33 3 40 20 40 17 0 20 7
20 45 0 41 2 45 25 45 23 0 25 4 25 40 0 33 3 40 20 40 17 0 20 7 20 45 0 38
3 45 20 45 17 0 20 7 20 40 0 33 3 40 20 40 17 0 20 7 20 45 0 41 2 45 25 45
22 0 25 4 25 39 0 30 4 40 20 44 16 4 20 14 20 46 0 34 3 41 20 41 17 0 20 7
20 40 0 33 4 40 19 40 15 0 20 10 25 45 6 36 11 45 27 45 16 0 19 7 19 45 0
38 3 45 20 45 17 0 20 7 20 40 0 33 3 40 20 40 17 0 20 7 20 45 0 38 3 45 19
45 15 0 21 10 26 40 5 30 11 40 26 40 16 0 19 7 19 45 0 38 3 45 20 45 17 0
20 7 20 40 0 33 3 40 20 40 18 0 20 7 20 70 0 63 -2 70 -20 70 -17 0 -20 7
-20 40 0 33 -3 40 -20 40 -17 0 -20 7 -20 41 0 32 -4 42 -19 46 -13 3 -22 17
-26 44 -5 29 -11 39 -26 39 -16 0 -19 7 -19 45 0 38 -3 45 -20 45 -17 0 -20 7
-20 40 0 33 -3 40 -20 40 -17 0 -20 7 -20 41 0 32 -4 42 -19 46 -13 3 -22 17
-26 44 -5 29 -11 39 -26 39 -16 0 -19 7 -19 45 0 38 -3 45 -20 45 -17 0 -20 7
-20 40 0 33 -3 40 -19 40 -16 0 -20 8 -23 43 -2 35 -7 43 -25 45 -19 3 -23 10
-23 43 0 32 -3 39 -20 39 -17 0 -20 7 -20 45 0 38 -3 45 -20 45 -17 0 -20 7
-20 40 0 33 -3 40 -19 40 -16 0 -20 8 -23 43 -2 35 -7 43 -25 45 -20 3 -23 9
-23 48 0 37 -3 44 -20 44 -17 0 -20 7 -20 40 0 33 -3 40 -20 40 -17 0 -20 7
-20 41 0 32 -4 42 -19 46 -13 3 -22 17 -26 44 -5 29 -11 39 -26 39 -16 0 -19
7 -19 45 0 38 -3 45 -20 45 -17 0 -20 7 -20 40 0 33 -3 40 -20 40 -17 0 -20 7
-20 41 0 32 -4 42 -19 46 -13 3 -22 17 -26 44 -5 29 -11 39 -26 39 -16 0 -19
7 -19 45 0 38 -3 45 -20 45 -17 0 -20 7 -20 40 0 33 -3 40 -19 40 -16 0 -20 8
-23 43 -2 35 -7 43 -25 45 -19 3 -23 10 -23 43 0 32 -3 39 -20 39 -17 0 -20 7
-20 45 0 38 -3 45 -20 45 -17 0 -20 7 -20 40 0 33 -3 40 -19 40 -16 0 -20 8
-23 43 -2 35 -7 43 -25 45 -20 3 -23 9 -23 48 0 37 -3 44 -20 44 -17 0 -20 7
-20 40 0 33 -3 40 -20 40 -17 0 -20 7 -20 41 0 32 -4 42 -19 46 -13 3 -22 17
-26 44 -5 29 -11 39 -26 39 -16 0 -19 7 -19 45 0 38 -3 45 -20 45 -17 0 -20 7
-20 40 0 33 -3 40 -20 40 -17 0 -20 7 -20 41 0 32 -4 42 -19 46 -13 3 -22 17
-26 44 -5 29 -11 39 -26 39 -16 0 -19 7 -19 45 0 38 -3 45 -20 45 -17 0 -20 7
-20 40 0 33 -3 40 -19 40 -16 0 -20 8 -23 43 -2 35 -7 43 -25 45 -19 3 -23 10
-23 43 0 32 -3 39 -20 39 -17 0 -20 7 -20 45 0 38 -3 45 -20 45 -17 0 -20 7
-20 40 0 33 -3 40 -19 40 -15 0 -27 -19 -51 -82z"/>
<path d="M19790 13870 c0 -33 -3 -40 -20 -40 -17 0 -20 -7 -20 -45 0 -38 -3
-45 -20 -45 -17 0 -20 -7 -20 -40 0 -33 -3 -40 -20 -40 -17 0 -20 -7 -20 -45
0 -41 -2 -45 -25 -45 -22 0 -25 -4 -25 -40 0 -33 -3 -40 -20 -40 -17 0 -20 -7
-20 -45 0 -38 -3 -45 -20 -45 -17 0 -20 -7 -20 -39 0 -33 -4 -40 -22 -43 -19
-2 -24 -10 -26 -45 -3 -35 -7 -43 -23 -43 -15 0 -19 -7 -19 -39 0 -30 -4 -40
-20 -44 -16 -4 -20 -14 -20 -46 0 -34 -3 -41 -20 -41 -17 0 -20 -7 -20 -45 0
-41 -2 -45 -25 -45 -22 0 -25 -4 -25 -40 0 -33 -3 -40 -20 -40 -17 0 -20 -7
-20 -45 0 -38 -3 -45 -20 -45 -17 0 -20 -7 -20 -40 0 -33 -3 -40 -20 -40 -17
0 -20 -7 -20 -45 0 -41 -2 -45 -25 -45 -22 0 -25 -4 -25 -40 0 -33 -3 -40 -20
-40 -17 0 -20 -7 -20 -45 0 -38 -3 -45 -20 -45 -17 0 -20 -7 -20 -40 0 -33 -3
-40 -20 -40 -17 0 -20 -7 -20 -45 0 -41 -2 -45 -25 -45 -22 0 -25 -4 -25 -40
0 -33 -3 -40 -20 -40 -17 0 -20 -7 -20 -45 0 -38 -3 -45 -20 -45 -17 0 -20 -7
-20 -39 0 -33 -4 -40 -22 -43 -19 -2 -24 -10 -26 -45 -3 -35 -7 -43 -23 -43
-15 0 -19 -7 -19 -39 0 -30 -4 -40 -20 -44 -16 -4 -20 -14 -20 -46 0 -34 -3
-41 -20 -41 -17 0 -20 -7 -20 -45 0 -41 -2 -45 -25 -45 -22 0 -25 -4 -25 -40
0 -33 -3 -40 -20 -40 -17 0 -20 -7 -20 -45 0 -38 -3 -45 -20 -45 -17 0 -20 -7
-20 -40 0 -33 -3 -40 -20 -40 -17 0 -20 -7 -20 -45 0 -41 -2 -45 -25 -45 -22
0 -25 -4 -25 -40 0 -33 -3 -40 -20 -40 -17 0 -20 -7 -20 -45 0 -38 -3 -45 -20
-45 -17 0 -20 -7 -20 -40 0 -33 -3 -40 -20 -40 -17 0 -20 -7 -20 -45 0 -41 -2
-45 -25 -45 -22 0 -25 -4 -25 -40 0 -33 -3 -40 -20 -40 -17 0 -20 -7 -20 -45
0 -38 -3 -45 -20 -45 -17 0 -20 -7 -20 -39 0 -33 -4 -40 -22 -43 -19 -2 -24
-10 -26 -45 -3 -35 -7 -43 -23 -43 -15 0 -19 -7 -19 -39 0 -30 -4 -40 -20 -44
-16 -4 -20 -14 -20 -46 0 -34 -3 -41 -20 -41 -17 0 -20 -7 -20 -45 0 -41 -2
-45 -25 -45 -22 0 -25 -4 -25 -40 0 -33 -3 -40 -20 -40 -17 0 -20 -7 -20 -45
0 -38 -3 -45 -20 -45 -15 0 -20 -7 -20 -25 0 -18 5 -25 20 -25 17 0 20 -7 20
-40 0 -33 3 -40 19 -40 16 0 20 -8 23 -42 2 -36 7 -44 26 -46 18 -3 22 -10 22
-43 0 -32 3 -39 20 -39 17 0 20 -7 20 -45 0 -38 3 -45 20 -45 17 0 20 -7 20
-40 0 -33 3 -40 19 -40 16 0 20 -8 23 -42 2 -36 7 -44 26 -46 18 -3 22 -10 22
-43 0 -32 3 -39 20 -39 17 0 20 -7 20 -45 0 -38 3 -45 20 -45 17 0 20 -7 20
-39 0 -33 4 -40 23 -43 18 -2 23 -10 25 -45 3 -35 7 -43 23 -43 16 0 19 -7 19
-45 0 -38 3 -45 20 -45 17 0 20 -7 20 -40 0 -33 3 -40 19 -40 16 0 20 -8 23
-42 2 -36 7 -44 26 -46 18 -3 22 -10 22 -43 0 -32 3 -39 20 -39 17 0 20 -7 20
-45 0 -38 3 -45 20 -45 17 0 20 -7 20 -40 0 -33 3 -40 19 -40 16 0 20 -8 23
-42 2 -36 7 -44 26 -46 18 -3 22 -10 22 -43 0 -32 3 -39 20 -39 17 0 20 -7 20
-45 0 -38 3 -45 20 -45 17 0 20 -7 20 -40 0 -33 3 -40 19 -40 16 0 20 -8 23
-42 2 -36 7 -44 26 -46 18 -3 22 -10 22 -43 0 -32 3 -39 20 -39 17 0 20 -7 20
-45 0 -38 3 -45 20 -45 17 0 20 -7 20 -39 0 -33 4 -40 23 -43 18 -2 23 -10 25
-45 3 -35 7 -43 23 -43 16 0 19 -7 19 -45 0 -38 3 -45 20 -45 17 0 20 -7 20
-40 0 -33 3 -40 19 -40 16 0 20 -8 23 -42 2 -36 7 -44 26 -46 18 -3 22 -10 22
-43 0 -32 3 -39 20 -39 17 0 20 -7 20 -45 0 -38 3 -45 20 -45 17 0 20 -7 20
-40 0 -33 3 -40 19 -40 16 0 20 -8 23 -42 2 -36 7 -44 26 -46 18 -3 22 -10 22
-43 0 -32 3 -39 20 -39 17 0 20 -7 20 -45 0 -38 3 -45 20 -45 17 0 20 -7 20
-40 0 -33 3 -40 19 -40 16 0 20 -8 23 -42 2 -36 7 -44 26 -46 18 -3 22 -10 22
-43 0 -32 3 -39 20 -39 17 0 20 -7 20 -45 0 -38 3 -45 20 -45 17 0 20 -7 20
-39 0 -33 4 -40 23 -43 18 -2 23 -10 25 -45 3 -35 7 -43 23 -43 16 0 19 -7 19
-45 0 -38 3 -45 20 -45 17 0 20 -7 20 -40 0 -33 3 -40 19 -40 15 0 21 -8 23
-32 2 -27 13 -7 57 112 303 819 504 1704 586 2575 56 599 59 1264 9 1845 -77
908 -268 1779 -574 2623 -36 97 -68 177 -72 177 -5 0 -8 -18 -8 -40z"/>
<path d="M10193 2500 c-4 -16 -14 -20 -44 -20 -32 0 -39 -4 -39 -19 0 -15 -10
-20 -45 -25 -36 -6 -45 -11 -45 -27 0 -16 -7 -19 -40 -19 -33 0 -40 -3 -40
-20 0 -17 -7 -20 -45 -20 -38 0 -45 -3 -45 -20 0 -17 -7 -20 -40 -20 -33 0
-40 -3 -40 -19 0 -16 -9 -21 -45 -27 -35 -5 -45 -10 -45 -25 0 -15 -7 -19 -40
-19 -33 0 -40 -3 -40 -20 0 -17 -7 -20 -45 -20 -38 0 -45 -3 -45 -20 0 -17 -7
-20 -40 -20 -36 0 -40 -2 -40 -25 0 -23 -4 -25 -45 -25 -38 0 -45 -3 -45 -20
0 -17 -7 -20 -40 -20 -33 0 -40 -3 -40 -20 0 -17 -7 -20 -45 -20 -38 0 -45 -3
-45 -20 0 -17 -7 -20 -40 -20 -36 0 -40 -2 -40 -25 0 -23 -4 -25 -45 -25 -38
0 -45 -3 -45 -20 0 -17 -7 -20 -41 -20 -32 0 -42 -4 -46 -20 -4 -16 -14 -20
-44 -20 -32 0 -39 -4 -39 -19 0 -15 -10 -20 -45 -25 -36 -6 -45 -11 -45 -27 0
-16 -7 -19 -40 -19 -33 0 -40 -3 -40 -20 0 -17 -7 -20 -45 -20 -38 0 -45 -3
-45 -20 0 -17 -7 -20 -40 -20 -33 0 -40 -3 -40 -19 0 -16 -9 -21 -45 -27 -35
-5 -45 -10 -45 -25 0 -15 -7 -19 -40 -19 -33 0 -40 -3 -40 -20 0 -17 -7 -20
-45 -20 -38 0 -45 -3 -45 -20 0 -17 -7 -20 -40 -20 -36 0 -40 -2 -40 -25 0
-23 -4 -25 -45 -25 -38 0 -45 -3 -45 -20 0 -17 -7 -20 -40 -20 -33 0 -40 -3
-40 -20 0 -17 -7 -20 -45 -20 -38 0 -45 -3 -45 -20 0 -17 -7 -20 -40 -20 -36
0 -40 -2 -40 -25 0 -23 -4 -25 -45 -25 -38 0 -45 -3 -45 -20 0 -17 -7 -20 -41
-20 -32 0 -42 -4 -46 -20 -4 -16 -14 -20 -44 -20 -32 0 -39 -4 -39 -19 0 -15
-10 -20 -45 -25 -36 -6 -45 -11 -45 -27 0 -16 -7 -19 -40 -19 -33 0 -40 -3
-40 -20 0 -17 -7 -20 -45 -20 -38 0 -45 -3 -45 -20 0 -17 -7 -20 -40 -20 -33
0 -40 -3 -40 -19 0 -16 -9 -21 -45 -27 -35 -5 -45 -10 -45 -25 0 -15 -7 -19
-40 -19 -33 0 -40 -3 -40 -20 0 -17 -7 -20 -45 -20 -38 0 -45 -3 -45 -20 0
-17 -7 -20 -40 -20 -36 0 -40 -2 -40 -25 0 -23 -4 -25 -45 -25 -38 0 -45 -3
-45 -20 0 -17 -7 -20 -40 -20 -33 0 -40 -3 -40 -20 0 -17 -7 -20 -45 -20 -38
0 -45 -3 -45 -20 0 -15 -7 -20 -27 -20 -45 0 -16 -14 137 -70 915 -332 1770
-515 2790 -597 306 -25 1154 -25 1460 0 812 66 1518 196 2230 410 291 88 706
234 709 250 7 39 0 47 -39 47 -33 0 -40 3 -40 20 0 17 -7 20 -45 20 -38 0 -45
3 -45 20 0 17 -7 20 -39 20 -33 0 -40 4 -43 23 -2 18 -10 23 -45 25 -35 3 -43
7 -43 23 0 16 -7 19 -40 19 -33 0 -40 3 -40 20 0 17 -7 20 -45 20 -37 0 -45 3
-45 19 0 15 -10 20 -45 25 -36 6 -45 11 -45 27 0 16 -7 19 -40 19 -33 0 -40 3
-40 20 0 17 -7 20 -45 20 -38 0 -45 3 -45 20 0 17 -7 20 -40 20 -33 0 -40 3
-40 19 0 16 -9 21 -45 27 -35 5 -45 10 -45 25 0 15 -7 19 -40 19 -33 0 -40 3
-40 20 0 17 -7 20 -45 20 -38 0 -45 3 -45 20 0 17 -7 20 -39 20 -33 0 -40 4
-43 23 -2 18 -10 23 -45 25 -35 3 -43 7 -43 23 0 16 -7 19 -40 19 -33 0 -40 3
-40 20 0 17 -7 20 -45 20 -38 0 -45 3 -45 20 0 17 -7 20 -39 20 -33 0 -40 4
-43 23 -2 18 -10 23 -45 25 -35 3 -43 7 -43 23 0 16 -7 19 -40 19 -33 0 -40 3
-40 20 0 17 -7 20 -45 20 -37 0 -45 3 -45 19 0 15 -10 20 -45 25 -36 6 -45 11
-45 27 0 16 -7 19 -40 19 -33 0 -40 3 -40 20 0 17 -7 20 -45 20 -38 0 -45 3
-45 20 0 17 -7 20 -40 20 -33 0 -40 3 -40 19 0 16 -9 21 -45 27 -35 5 -45 10
-45 25 0 15 -7 19 -40 19 -33 0 -40 3 -40 20 0 17 -7 20 -45 20 -38 0 -45 3
-45 20 0 17 -7 20 -39 20 -33 0 -40 4 -43 23 -2 18 -10 23 -45 25 -35 3 -43 7
-43 23 0 16 -7 19 -40 19 -33 0 -40 3 -40 20 0 17 -7 20 -45 20 -38 0 -45 3
-45 20 0 17 -7 20 -39 20 -33 0 -40 4 -43 23 -2 18 -10 23 -45 25 -35 3 -43 7
-43 23 0 16 -7 19 -40 19 -33 0 -40 3 -40 20 0 17 -7 20 -45 20 -37 0 -45 3
-45 19 0 15 -10 20 -45 25 -36 6 -45 11 -45 27 0 16 -7 19 -40 19 -33 0 -40 3
-40 20 0 17 -7 20 -45 20 -38 0 -45 3 -45 20 0 17 -7 20 -40 20 -33 0 -40 3
-40 19 0 16 -9 21 -45 27 -35 5 -45 10 -45 25 0 15 -7 19 -40 19 -33 0 -40 3
-40 20 0 18 -7 20 -66 20 -57 0 -67 -3 -71 -20z"/>
</g>
</svg>
